<svg xmlns="http://www.w3.org/2000/svg" viewBox="0 0 35.06 33.34"><defs><style>.cls-1{font-size:6.16px;fill:#990014;font-family:Meichic, Meichic;}.cls-2{fill:#ed1b23;}</style></defs><title>Risorsa 15</title><g id="Livello_2" data-name="Livello 2"><g id="Layer_1" data-name="Layer 1"><text class="cls-1" transform="translate(0 31.89)">Senza Glutine</text><path class="cls-2" d="M18.07,0a11.95,11.95,0,1,1-.14,23.89A11.84,11.84,0,0,1,6.1,11.79,12,12,0,0,1,18.07,0ZM6.47,12a11.6,11.6,0,1,0,23.17-.77A11.6,11.6,0,0,0,6.47,12Z"/><path class="cls-2" d="M27.26,22.16a.83.83,0,0,1,.84.85.85.85,0,0,1-1.69,0A.84.84,0,0,1,27.26,22.16Zm-.69.81a.65.65,0,0,0,.72.71.67.67,0,0,0,.65-.76.65.65,0,0,0-.77-.63A.69.69,0,0,0,26.57,23Z"/><path class="cls-2" d="M9.44,7a4.9,4.9,0,0,1,1.79-1.47A3.78,3.78,0,0,1,14,5.29a2.9,2.9,0,0,1,1.53,1.08,13.3,13.3,0,0,1,.93,1.49c.44.73.86,1.47,1.29,2.21a1.08,1.08,0,0,0,.18.2c.43-.26.75-.77,1.41-.63a1.48,1.48,0,0,0-.18,1.21c.05.17-.19.43-.34.62a.28.28,0,0,0,0,.36c.38.67.75,1.35,1.13,2l1.41,2.4a11.74,11.74,0,0,0,.79,1.27,2.34,2.34,0,0,0,2.52.72,3.75,3.75,0,0,0,1.59-.71.8.8,0,0,1,.18-.1,2.94,2.94,0,0,1-1.71,1.39,10.54,10.54,0,0,1-1.93.42,2.23,2.23,0,0,1-1.42-.41,4.89,4.89,0,0,1-1.52-1.74c-.58-1-1.16-2-1.73-3-.2-.36-.4-.72-.59-1.08-.09-.18-.2-.2-.35-.09l-2,1.4-.51.39,0,.08,1.63-.23c0,.11-.06.2-.09.28l-1.65,3.67a.55.55,0,0,1-.2.2A5.16,5.16,0,0,0,13,20.28a.75.75,0,0,1-.14.17,17.92,17.92,0,0,1,1.41-4.74,3.33,3.33,0,0,0-1.25.45,7.1,7.1,0,0,0-2.13,2.2c-.21.27-.4.56-.6.84a.3.3,0,0,1-.49.06c-.26-.2-.33-.44-.17-.62.7-.75,1.41-1.5,2.13-2.24A14.88,14.88,0,0,1,13,15.28c.47-.38,1-.72,1.46-1.07l2-1.45c.15-.11.32-.19.46-.31a.24.24,0,0,0,.07-.2l-.91-1.67c-.25-.47-.49-1-.75-1.43A9.41,9.41,0,0,0,14,7.05a2.81,2.81,0,0,0-2-.85A4.41,4.41,0,0,0,9.54,7Z"/><path class="cls-2" d="M23.31,7.87a2.24,2.24,0,0,0,.33-1.54.56.56,0,0,1,.24-.43c.42-.25.87-.46,1.31-.68a1.78,1.78,0,0,1,.53-.11,2.56,2.56,0,0,0-.51,1.36,1,1,0,0,1-.55.7l-1.3.76Z"/><path class="cls-2" d="M24.51,9.54a1.72,1.72,0,0,1-.84.69,2.91,2.91,0,0,1-1.44.39l-.31,0-1.07-.17-.11,0s0,0,0,0c.48-.34.94-.72,1.44-1a1,1,0,0,1,.61,0c.2,0,.38.15.58.18s.52.06.78.09S24.35,9.54,24.51,9.54Z"/><path class="cls-2" d="M23.4,6.61A2.38,2.38,0,0,0,23,8a.36.36,0,0,1-.13.25,5.2,5.2,0,0,1-1.54,1.13s0,0-.08,0A2.24,2.24,0,0,0,21.45,8a.53.53,0,0,1,.23-.5A3.48,3.48,0,0,1,23.4,6.61Z"/><path class="cls-2" d="M19.3,10.67a1.77,1.77,0,0,0,.2-1.31.63.63,0,0,1,.2-.48A13,13,0,0,1,21.07,8,2.61,2.61,0,0,0,21,9.56s0,.09,0,.11c-.35.36-.62.82-1.13,1a3.85,3.85,0,0,1-.47.08Z"/><path class="cls-2" d="M22.82,8.86c.49-.32,1-.65,1.47-.93a.72.72,0,0,1,.54,0,2,2,0,0,0,1.54,0h.17a3.16,3.16,0,0,1-1.13,1A2,2,0,0,1,23.8,9a2.93,2.93,0,0,0-.94-.06Z"/><path class="cls-2" d="M18.86,11.66l.76-.51a3.73,3.73,0,0,1,.65-.41,1.26,1.26,0,0,1,.61,0c.45.07.9.17,1.34.26a.25.25,0,0,1-.07.09c-.38.27-.74.57-1.14.81a1,1,0,0,1-.56,0c-.46,0-.91-.12-1.37-.19A1.16,1.16,0,0,1,18.86,11.66Z"/><path class="cls-2" d="M24.84,7.55l1.42-1a.25.25,0,0,1,.13-.06H28s0,.08,0,.12a3.83,3.83,0,0,1-1.41,1.11,1,1,0,0,1-.93,0A3.59,3.59,0,0,0,24.84,7.55Z"/><path class="cls-2" d="M26.94,23.43a7.82,7.82,0,0,1,0-.84c0-.12.42-.16.54,0s.07.24.07.37-.1.07-.16.1l.21.39-.06.05L27.14,23l-.11.46Zm.54-.76-.4,0c0,.07,0,.17,0,.2S27.4,22.94,27.48,22.67Z"/></g></g></svg>