<?xml version="1.0" encoding="UTF-8" standalone="no"?>
<svg
   viewBox="0 0 35.06 33.34"
   version="1.1"
   id="svg34"
   sodipodi:docname="senza_glutine.svg"
   inkscape:version="1.1.1 (3bf5ae0d25, 2021-09-20)"
   xmlns:inkscape="http://www.inkscape.org/namespaces/inkscape"
   xmlns:sodipodi="http://sodipodi.sourceforge.net/DTD/sodipodi-0.dtd"
   xmlns="http://www.w3.org/2000/svg"
   xmlns:svg="http://www.w3.org/2000/svg"
   xmlns:rdf="http://www.w3.org/1999/02/22-rdf-syntax-ns#"
   xmlns:cc="http://creativecommons.org/ns#"
   xmlns:dc="http://purl.org/dc/elements/1.1/">
  <sodipodi:namedview
     id="namedview36"
     pagecolor="#ffffff"
     bordercolor="#666666"
     borderopacity="1.0"
     inkscape:pageshadow="2"
     inkscape:pageopacity="0.0"
     inkscape:pagecheckerboard="0"
     showgrid="false"
     inkscape:zoom="19.706059"
     inkscape:cx="17.735662"
     inkscape:cy="17.532679"
     inkscape:window-width="1680"
     inkscape:window-height="956"
     inkscape:window-x="1280"
     inkscape:window-y="31"
     inkscape:window-maximized="1"
     inkscape:current-layer="svg34" />
  <defs
     id="defs4">
    <style
       id="style2">.cls-1{font-size:6.16px;fill:#990014;font-family:Meichic, Meichic;}.cls-2{fill:#ed1b23;}</style>
  </defs>
  <title
     id="title6">Risorsa 15</title>
  <g
     aria-label="Senza Glutine"
     id="text8"
     style="font-size:6.16px;font-family:Meichic, Meichic;fill:#990014;stroke-width:0.813282"
     class="cls-1"
     transform="matrix(0.80906935,0,0,0.80906935,0.09200417,5.5684438)">
    <path
       d="m 3.37238,27.117927 v 0.592539 q -0.3458985,-0.165429 -0.6526953,-0.24664 -0.3067969,-0.08121 -0.5925391,-0.08121 -0.496289,0 -0.7669922,0.1925 -0.2676953,0.1925 -0.2676953,0.547422 0,0.297773 0.177461,0.451171 0.1804687,0.150391 0.6797656,0.243633 l 0.3669531,0.0752 q 0.6797656,0.129335 1.0016015,0.457187 0.3248438,0.324844 0.3248438,0.872266 0,0.652695 -0.4391406,0.98957 -0.4361328,0.336875 -1.2813281,0.336875 -0.3188282,0 -0.6797656,-0.07219 -0.35792972,-0.07219 -0.74292972,-0.213554 v -0.625625 q 0.36996093,0.207539 0.72488282,0.312812 0.3549218,0.105274 0.6978125,0.105274 0.5203515,0 0.8030859,-0.204532 0.2827343,-0.204531 0.2827343,-0.583515 0,-0.33086 -0.2045312,-0.517344 Q 2.60238,29.563279 2.1391769,29.470037 l -0.369961,-0.07219 q -0.6797656,-0.13535 -0.98355463,-0.4241 -0.30378906,-0.28875 -0.30378906,-0.803085 0,-0.595547 0.41808593,-0.938438 0.42109376,-0.342891 1.15800776,-0.342891 0.3158203,0 0.6436719,0.05715 0.3278515,0.05715 0.6707422,0.171444 z"
       style="font-size:6.16px;font-family:Meichic, Meichic;fill:#990014;stroke-width:0.813282"
       id="path979" />
    <path
       d="m 7.4479659,29.638474 v 0.270703 H 4.9033566 q 0.036094,0.571484 0.3428906,0.872266 0.3098047,0.297773 0.8602343,0.297773 0.3188282,0 0.6166016,-0.0782 0.3007812,-0.0782 0.5955469,-0.234609 v 0.523359 q -0.2977735,0.126328 -0.610586,0.1925 -0.3128125,0.06617 -0.6346484,0.06617 -0.8060937,0 -1.2783203,-0.469219 -0.4692187,-0.469219 -0.4692187,-1.269297 0,-0.827148 0.4451562,-1.311406 0.4481641,-0.487266 1.2061328,-0.487266 0.6797656,0 1.073789,0.439141 0.3970313,0.436133 0.3970313,1.188085 z M 6.8945284,29.476052 q -0.00602,-0.45418 -0.2556641,-0.724883 -0.2466406,-0.270703 -0.6557031,-0.270703 -0.4632031,0 -0.7429296,0.26168 -0.2767188,0.26168 -0.3188282,0.736914 z"
       style="font-size:6.16px;font-family:Meichic, Meichic;fill:#990014;stroke-width:0.813282"
       id="path981" />
    <path
       d="m 11.156599,29.427927 v 2.033281 h -0.553438 v -2.015234 q 0,-0.478242 -0.186484,-0.715859 -0.186485,-0.237618 -0.5594535,-0.237618 -0.448164,0 -0.7068359,0.285743 -0.2586718,0.285742 -0.2586718,0.779023 v 1.903945 H 8.3352705 v -3.36875 h 0.5564453 v 0.52336 q 0.1985156,-0.303789 0.4662109,-0.45418 0.2707031,-0.150391 0.6226171,-0.150391 0.5805082,0 0.8782812,0.360938 0.297774,0.35793 0.297774,1.055742 z"
       style="font-size:6.16px;font-family:Meichic, Meichic;fill:#990014;stroke-width:0.813282"
       id="path983" />
    <path
       d="m 12.019841,28.092458 h 2.628828 v 0.505313 l -2.081407,2.421289 h 2.081407 v 0.442148 h -2.704024 v -0.505312 l 2.081407,-2.421289 h -2.006211 z"
       style="font-size:6.16px;font-family:Meichic, Meichic;fill:#990014;stroke-width:0.813282"
       id="path985" />
    <path
       d="m 17.024841,29.76781 q -0.670743,0 -0.929414,0.153398 -0.258672,0.153399 -0.258672,0.52336 0,0.294765 0.1925,0.469218 0.195507,0.171446 0.529375,0.171446 0.460195,0 0.736914,-0.324844 0.279726,-0.327852 0.279726,-0.869258 v -0.12332 z m 1.103867,-0.228594 v 1.921992 H 17.57527 V 30.94988 q -0.189492,0.306797 -0.472226,0.45418 -0.282735,0.144375 -0.691797,0.144375 -0.517344,0 -0.824141,-0.28875 -0.303789,-0.291758 -0.303789,-0.779024 0,-0.568476 0.378985,-0.857226 0.381992,-0.28875 1.136953,-0.28875 h 0.776015 v -0.05414 q 0,-0.381992 -0.252656,-0.589531 -0.249648,-0.210547 -0.703828,-0.210547 -0.28875,0 -0.562461,0.06918 -0.273711,0.06918 -0.526367,0.207539 v -0.511328 q 0.303789,-0.117305 0.589531,-0.174453 0.285742,-0.06016 0.556445,-0.06016 0.730899,0 1.091836,0.378985 0.360938,0.378984 0.360938,1.148984 z"
       style="font-size:6.16px;font-family:Meichic, Meichic;fill:#990014;stroke-width:0.813282"
       id="path987" />
    <path
       d="m 24.31277,30.820544 v -1.206132 h -0.992578 v -0.499297 h 1.59414 v 1.928007 q -0.351914,0.249649 -0.776015,0.378985 -0.424102,0.126328 -0.905352,0.126328 -1.052734,0 -1.648281,-0.613594 -0.592539,-0.616601 -0.592539,-1.714453 0,-1.100859 0.592539,-1.714453 0.595547,-0.616602 1.648281,-0.616602 0.439141,0 0.833164,0.108282 0.397031,0.108281 0.730899,0.318828 v 0.646679 q -0.336875,-0.285742 -0.71586,-0.430117 -0.378984,-0.144375 -0.79707,-0.144375 -0.824141,0 -1.239219,0.460196 -0.41207,0.460195 -0.41207,1.371562 0,0.908359 0.41207,1.368555 0.415078,0.460195 1.239219,0.460195 0.321836,0 0.574492,-0.05414 0.252656,-0.05715 0.45418,-0.174453 z"
       style="font-size:6.16px;font-family:Meichic, Meichic;fill:#990014;stroke-width:0.813282"
       id="path989" />
    <path
       d="m 26.000154,26.781052 h 0.553437 v 4.680156 h -0.553437 z"
       style="font-size:6.16px;font-family:Meichic, Meichic;fill:#990014;stroke-width:0.813282"
       id="path991" />
    <path
       d="m 27.65445,30.131755 v -2.039297 h 0.553437 v 2.018243 q 0,0.478242 0.186485,0.718867 0.186484,0.237617 0.559453,0.237617 0.448164,0 0.706836,-0.285742 0.26168,-0.285742 0.26168,-0.779024 v -1.909961 h 0.553437 v 3.36875 h -0.553437 v -0.517343 q -0.201524,0.306796 -0.469219,0.457187 -0.264688,0.147383 -0.616602,0.147383 -0.580508,0 -0.881289,-0.360938 Q 27.65445,30.82656 27.65445,30.131755 Z m 1.392617,-2.120508 z"
       style="font-size:6.16px;font-family:Meichic, Meichic;fill:#990014;stroke-width:0.813282"
       id="path993" />
    <path
       d="m 32.163161,27.135974 v 0.956484 h 1.139961 v 0.430118 h -1.139961 v 1.82875 q 0,0.41207 0.111289,0.529375 0.114297,0.117304 0.460195,0.117304 h 0.568477 v 0.463203 h -0.568477 q -0.640664,0 -0.884297,-0.237617 -0.243633,-0.240625 -0.243633,-0.872265 v -1.82875 h -0.406054 v -0.430118 h 0.406054 v -0.956484 z"
       style="font-size:6.16px;font-family:Meichic, Meichic;fill:#990014;stroke-width:0.813282"
       id="path995" />
    <path
       d="m 34.031013,28.092458 h 0.553437 v 3.36875 h -0.553437 z m 0,-1.311406 h 0.553437 v 0.700821 h -0.553437 z"
       style="font-size:6.16px;font-family:Meichic, Meichic;fill:#990014;stroke-width:0.813282"
       id="path997" />
    <path
       d="m 38.542731,29.427927 v 2.033281 h -0.553438 v -2.015234 q 0,-0.478242 -0.186484,-0.715859 -0.186484,-0.237618 -0.559453,-0.237618 -0.448164,0 -0.706836,0.285743 -0.258672,0.285742 -0.258672,0.779023 v 1.903945 h -0.556445 v -3.36875 h 0.556445 v 0.52336 q 0.198516,-0.303789 0.466211,-0.45418 0.270703,-0.150391 0.622617,-0.150391 0.580508,0 0.878281,0.360938 0.297774,0.35793 0.297774,1.055742 z"
       style="font-size:6.16px;font-family:Meichic, Meichic;fill:#990014;stroke-width:0.813282"
       id="path999" />
    <path
       d="m 42.528082,29.638474 v 0.270703 h -2.544609 q 0.03609,0.571484 0.34289,0.872266 0.309805,0.297773 0.860235,0.297773 0.318828,0 0.616601,-0.0782 0.300782,-0.0782 0.595547,-0.234609 v 0.523359 q -0.297773,0.126328 -0.610586,0.1925 -0.312812,0.06617 -0.634648,0.06617 -0.806094,0 -1.27832,-0.469219 -0.469219,-0.469219 -0.469219,-1.269297 0,-0.827148 0.445156,-1.311406 0.448164,-0.487266 1.206133,-0.487266 0.679765,0 1.073789,0.439141 0.397031,0.436133 0.397031,1.188085 z m -0.553437,-0.162422 q -0.006,-0.45418 -0.255664,-0.724883 -0.246641,-0.270703 -0.655703,-0.270703 -0.463204,0 -0.74293,0.26168 -0.276719,0.26168 -0.318828,0.736914 z"
       style="font-size:6.16px;font-family:Meichic, Meichic;fill:#990014;stroke-width:0.813282"
       id="path1001" />
  </g>
  <path
     class="cls-2"
     d="M 18.07,0 A 11.95,11.95 0 1 1 17.93,23.89 11.84,11.84 0 0 1 6.1,11.79 12,12 0 0 1 18.07,0 Z M 6.47,12 A 11.6,11.6 0 1 0 29.64,11.23 11.6,11.6 0 0 0 6.47,12 Z"
     id="path10" />
  <path
     class="cls-2"
     d="m 27.26,22.16 a 0.83,0.83 0 0 1 0.84,0.85 0.85,0.85 0 0 1 -1.69,0 0.84,0.84 0 0 1 0.85,-0.85 z m -0.69,0.81 a 0.65,0.65 0 0 0 0.72,0.71 0.67,0.67 0 0 0 0.65,-0.76 0.65,0.65 0 0 0 -0.77,-0.63 0.69,0.69 0 0 0 -0.6,0.71 z"
     id="path12" />
  <path
     class="cls-2"
     d="M 9.44,7 A 4.9,4.9 0 0 1 11.23,5.53 3.78,3.78 0 0 1 14,5.29 a 2.9,2.9 0 0 1 1.53,1.08 13.3,13.3 0 0 1 0.93,1.49 c 0.44,0.73 0.86,1.47 1.29,2.21 a 1.08,1.08 0 0 0 0.18,0.2 c 0.43,-0.26 0.75,-0.77 1.41,-0.63 a 1.48,1.48 0 0 0 -0.18,1.21 c 0.05,0.17 -0.19,0.43 -0.34,0.62 a 0.28,0.28 0 0 0 0,0.36 c 0.38,0.67 0.75,1.35 1.13,2 l 1.41,2.4 a 11.74,11.74 0 0 0 0.79,1.27 2.34,2.34 0 0 0 2.52,0.72 3.75,3.75 0 0 0 1.59,-0.71 0.8,0.8 0 0 1 0.18,-0.1 2.94,2.94 0 0 1 -1.71,1.39 10.54,10.54 0 0 1 -1.93,0.42 2.23,2.23 0 0 1 -1.42,-0.41 4.89,4.89 0 0 1 -1.52,-1.74 c -0.58,-1 -1.16,-2 -1.73,-3 -0.2,-0.36 -0.4,-0.72 -0.59,-1.08 -0.09,-0.18 -0.2,-0.2 -0.35,-0.09 l -2,1.4 -0.51,0.39 v 0.08 l 1.63,-0.23 c 0,0.11 -0.06,0.2 -0.09,0.28 l -1.65,3.67 a 0.55,0.55 0 0 1 -0.2,0.2 5.16,5.16 0 0 0 -1.37,1.59 0.75,0.75 0 0 1 -0.14,0.17 17.92,17.92 0 0 1 1.41,-4.74 3.33,3.33 0 0 0 -1.25,0.45 7.1,7.1 0 0 0 -2.13,2.2 c -0.21,0.27 -0.4,0.56 -0.6,0.84 A 0.3,0.3 0 0 1 9.8,19.26 c -0.26,-0.2 -0.33,-0.44 -0.17,-0.62 0.7,-0.75 1.41,-1.5 2.13,-2.24 A 14.88,14.88 0 0 1 13,15.28 c 0.47,-0.38 1,-0.72 1.46,-1.07 l 2,-1.45 c 0.15,-0.11 0.32,-0.19 0.46,-0.31 a 0.24,0.24 0 0 0 0.07,-0.2 l -0.91,-1.67 c -0.25,-0.47 -0.49,-1 -0.75,-1.43 A 9.41,9.41 0 0 0 14,7.05 2.81,2.81 0 0 0 12,6.2 4.41,4.41 0 0 0 9.54,7 Z"
     id="path14" />
  <path
     class="cls-2"
     d="M 23.31,7.87 A 2.24,2.24 0 0 0 23.64,6.33 0.56,0.56 0 0 1 23.88,5.9 C 24.3,5.65 24.75,5.44 25.19,5.22 a 1.78,1.78 0 0 1 0.53,-0.11 2.56,2.56 0 0 0 -0.51,1.36 1,1 0 0 1 -0.55,0.7 l -1.3,0.76 z"
     id="path16" />
  <path
     class="cls-2"
     d="m 24.51,9.54 a 1.72,1.72 0 0 1 -0.84,0.69 2.91,2.91 0 0 1 -1.44,0.39 h -0.31 l -1.07,-0.17 h -0.11 c 0,0 0,0 0,0 0.48,-0.34 0.94,-0.72 1.44,-1 a 1,1 0 0 1 0.61,0 c 0.2,0 0.38,0.15 0.58,0.18 0.2,0.03 0.52,0.06 0.78,0.09 0.26,0.03 0.2,-0.18 0.36,-0.18 z"
     id="path18" />
  <path
     class="cls-2"
     d="M 23.4,6.61 A 2.38,2.38 0 0 0 23,8 0.36,0.36 0 0 1 22.87,8.25 5.2,5.2 0 0 1 21.33,9.38 c 0,0 0,0 -0.08,0 A 2.24,2.24 0 0 0 21.45,8 0.53,0.53 0 0 1 21.68,7.5 3.48,3.48 0 0 1 23.4,6.61 Z"
     id="path20" />
  <path
     class="cls-2"
     d="M 19.3,10.67 A 1.77,1.77 0 0 0 19.5,9.36 0.63,0.63 0 0 1 19.7,8.88 13,13 0 0 1 21.07,8 2.61,2.61 0 0 0 21,9.56 c 0,0 0,0.09 0,0.11 -0.35,0.36 -0.62,0.82 -1.13,1 a 3.85,3.85 0 0 1 -0.47,0.08 z"
     id="path22" />
  <path
     class="cls-2"
     d="m 22.82,8.86 c 0.49,-0.32 1,-0.65 1.47,-0.93 a 0.72,0.72 0 0 1 0.54,0 2,2 0 0 0 1.54,0 h 0.17 a 3.16,3.16 0 0 1 -1.13,1 A 2,2 0 0 1 23.8,9 2.93,2.93 0 0 0 22.86,8.94 Z"
     id="path24" />
  <path
     class="cls-2"
     d="m 18.86,11.66 0.76,-0.51 a 3.73,3.73 0 0 1 0.65,-0.41 1.26,1.26 0 0 1 0.61,0 c 0.45,0.07 0.9,0.17 1.34,0.26 a 0.25,0.25 0 0 1 -0.07,0.09 c -0.38,0.27 -0.74,0.57 -1.14,0.81 a 1,1 0 0 1 -0.56,0 c -0.46,0 -0.91,-0.12 -1.37,-0.19 a 1.16,1.16 0 0 1 -0.22,-0.05 z"
     id="path26" />
  <path
     class="cls-2"
     d="m 24.84,7.55 1.42,-1 A 0.25,0.25 0 0 1 26.39,6.49 H 28 c 0,0 0,0.08 0,0.12 a 3.83,3.83 0 0 1 -1.41,1.11 1,1 0 0 1 -0.93,0 3.59,3.59 0 0 0 -0.82,-0.17 z"
     id="path28" />
  <path
     class="cls-2"
     d="m 26.94,23.43 a 7.82,7.82 0 0 1 0,-0.84 c 0,-0.12 0.42,-0.16 0.54,0 0.12,0.16 0.07,0.24 0.07,0.37 0,0.13 -0.1,0.07 -0.16,0.1 l 0.21,0.39 -0.06,0.05 -0.4,-0.5 -0.11,0.46 z m 0.54,-0.76 h -0.4 c 0,0.07 0,0.17 0,0.2 0,0.03 0.32,0.07 0.4,-0.2 z"
     id="path30" />
  <metadata
     id="metadata853">
    <rdf:RDF>
      <cc:Work
         rdf:about="">
        <dc:title>Risorsa 15</dc:title>
      </cc:Work>
    </rdf:RDF>
  </metadata>
</svg>
