<?xml version="1.0" encoding="UTF-8" standalone="no"?>
<svg
   viewBox="0 0 3700.0001 1736"
   version="1.1"
   id="svg153"
   sodipodi:docname="logo_index.svg"
   width="3700"
   height="1736"
   inkscape:version="1.1.1 (3bf5ae0d25, 2021-09-20)"
   xmlns:inkscape="http://www.inkscape.org/namespaces/inkscape"
   xmlns:sodipodi="http://sodipodi.sourceforge.net/DTD/sodipodi-0.dtd"
   xmlns="http://www.w3.org/2000/svg"
   xmlns:svg="http://www.w3.org/2000/svg"
   xmlns:rdf="http://www.w3.org/1999/02/22-rdf-syntax-ns#"
   xmlns:cc="http://creativecommons.org/ns#"
   xmlns:dc="http://purl.org/dc/elements/1.1/">
  <sodipodi:namedview
     id="namedview824"
     pagecolor="#ffffff"
     bordercolor="#666666"
     borderopacity="1.0"
     inkscape:pageshadow="2"
     inkscape:pageopacity="0.0"
     inkscape:pagecheckerboard="0"
     showgrid="false"
     inkscape:zoom="0.25459459"
     inkscape:cx="1850"
     inkscape:cy="866.0828"
     inkscape:window-width="1680"
     inkscape:window-height="950"
     inkscape:window-x="1280"
     inkscape:window-y="33"
     inkscape:window-maximized="1"
     inkscape:current-layer="layer2"
     inkscape:showpageshadow="false" />
  <defs
     id="defs11">
    <style
       id="style9">.cls-1{fill:none;stroke:#221f20;stroke-width:0px;}.cls-1,.cls-4,.cls-6{stroke-miterlimit:10;}.cls-2{fill:#8d2825;}.cls-3{fill:#008a4f;}.cls-4,.cls-6,.cls-7{fill:#fff;}.cls-4{stroke:#8d2825;}.cls-5{fill:#db4236;}.cls-6{stroke:#fff;}</style>
  </defs>
  <title
     id="title13">Tavola disegno 1 copia 8</title>
  <g
     inkscape:groupmode="layer"
     id="layer2"
     inkscape:label="Layer 1">
    <g
       id="g1272"
       transform="translate(-1.5317206,195.24079)">
      <path
         class="cls-3"
         d="m 2612.68,1126.28 c -75.82,87.55 -233.63,232.53 -302.95,259.28 81.55,-5 257,-149.86 351.84,-259.28 z"
         id="path86" />
      <path
         class="cls-3"
         d="m 2089.3,1214.18 h -97.74 c 74.54,164.56 187.77,221.68 318.17,171.38 -89.3,5.4 -166.15,-51.6 -220.43,-171.38 z"
         id="path88" />
      <path
         class="cls-6"
         d="m 2186.6,1214.11 h -97.3 c 74.16,164.55 186.85,221.65 316.7,171.38 -88.98,5.47 -165.39,-51.59 -219.4,-171.38 z"
         id="path90" />
      <path
         class="cls-6"
         d="m 2708.18,1126.28 c -75.59,87.52 -233.08,232.49 -302.18,259.21 81.21,-4.92 256.4,-149.87 350.84,-259.21 z"
         id="path92" />
      <path
         class="cls-5"
         d="m 2283.94,1214.18 h -97.34 c 74.22,164.56 186.89,221.68 316.76,171.4 -88.95,5.38 -165.45,-51.62 -219.42,-171.4 z"
         id="path94" />
      <path
         class="cls-5"
         d="m 2805.49,1126.34 c -75.54,87.51 -233.07,232.5 -302.13,259.24 81.23,-5 256.39,-149.88 350.83,-259.24 z"
         id="path96" />
    </g>
    <g
       id="g1264"
       transform="translate(-1.5317206,151.24079)">
      <path
         class="cls-7"
         d="m 361.17,495.48 a 19.22,19.22 0 0 1 -7.78,16 27.62,27.62 0 0 1 -17.08,6 28.31,28.31 0 0 1 -17.73,-6 20.21,20.21 0 0 1 0,-32 27.11,27.11 0 0 1 17.05,-6.07 28.47,28.47 0 0 1 17.76,6.07 19.1,19.1 0 0 1 7.78,16 z"
         id="path98" />
      <path
         class="cls-7"
         d="m 364.72,922.34 c -16.59,0 -28.55,-3.7 -35.88,-11 -7.33,-7.3 -11,-17.2 -11,-29.56 V 553.73 h 36.24 v 334.52 a 34,34 0 0 0 3.91,15.93 c 2.61,5 6.45,7.45 11.67,7.45 a 12.59,12.59 0 0 0 6.79,-2 c 2.14,-1.36 3.89,-2.58 5.34,-3.7 v 13.54 c -4.28,1.91 -9.94,2.87 -17.07,2.87 z"
         id="path100" />
      <path
         class="cls-7"
         d="m 477.68,922.34 c -16.57,0 -28.59,-3.7 -35.92,-11 -7.33,-7.3 -11,-17.2 -11,-29.56 V 410.27 h 36.23 v 478 a 33.85,33.85 0 0 0 3.91,15.93 c 2.6,5 6.49,7.45 11.72,7.45 a 13.12,13.12 0 0 0 6.74,-1.76 c 2.13,-1.19 3.87,-2.22 5.3,-3.19 v 12.79 c -4.23,1.89 -9.94,2.85 -16.98,2.85 z"
         id="path102" />
    </g>
    <g
       id="g1299"
       transform="translate(-1.5317206,151.24079)">
      <path
         class="cls-7"
         d="m 999.28,846.7 a 205.81,205.81 0 0 1 -46.54,43.3 216.23,216.23 0 0 1 -59.26,28.06 q -32.68,9.93 -71,9.94 -56.85,0 -100.52,-20.95 -43.67,-20.95 -73.5,-56.46 -29.89,-35.49 -45.11,-83.47 -15.22,-47.98 -15.27,-101.9 0,-54 15.28,-101.94 15.28,-47.94 45.11,-83.45 29.79,-35.48 73.5,-56.46 43.71,-20.98 100.52,-20.94 38.33,0 71,10 a 216.4,216.4 0 0 1 59.26,28 206.34,206.34 0 0 1 46.54,43.37 256.16,256.16 0 0 1 33.37,55.7 h -33.38 a 232.29,232.29 0 0 0 -27,-50.74 186.55,186.55 0 0 0 -38.35,-40.14 166.49,166.49 0 0 0 -49.74,-26.23 q -27.69,-9.3 -61.76,-9.25 -51.14,0 -88.48,21.27 a 186.76,186.76 0 0 0 -61.74,56.82 q -24.52,35.5 -36.25,81 a 376.74,376.74 0 0 0 0,186.4 q 11.76,45.1 36.25,80.62 a 186.76,186.76 0 0 0 61.74,56.82 q 37.33,21.3 88.48,21.35 34.1,0 61.76,-9.26 a 166.25,166.25 0 0 0 49.74,-26.32 187.17,187.17 0 0 0 38.35,-40.08 230.77,230.77 0 0 0 27,-50.81 h 33.37 a 257.51,257.51 0 0 1 -33.37,55.75 z"
         id="path104" />
      <path
         class="cls-7"
         d="m 1351.54,920.9 v -37 q -16.32,19.19 -48.64,31.63 -32.32,12.44 -74.21,12.43 -33.4,0 -60,-7.45 -26.6,-7.45 -45.1,-21 -18.48,-13.56 -28.39,-31.42 a 77.33,77.33 0 0 1 -10,-38.48 73.29,73.29 0 0 1 11,-39.21 c 7.37,-11.84 17.81,-22.2 31.25,-31 13.44,-8.8 29.52,-15.7 48,-20.67 18.48,-4.97 38.78,-7.47 61.09,-7.47 q 28.33,0 49.72,-7.47 21.39,-7.47 35.84,-19.79 a 84.81,84.81 0 0 0 22.06,-27.91 75.16,75.16 0 0 0 7.4,-32.56 79,79 0 0 0 -6.75,-31.83 86,86 0 0 0 -19.52,-28 c -8.52,-8.23 -19.27,-14.85 -32.32,-19.73 -13.05,-4.88 -28,-7.46 -45.07,-7.46 -17.07,0 -32,2.44 -44.73,7.46 -12.73,5.02 -23.62,11.58 -32.36,19.86 a 79.86,79.86 0 0 0 -19.52,28 83.56,83.56 0 0 0 -6.43,32 h -36.2 a 76.59,76.59 0 0 1 10.33,-38.72 c 6.84,-12.09 16.45,-22.46 28.76,-31.27 12.31,-8.81 27,-15.59 44.06,-20.6 17.06,-5.01 35.73,-7.44 56.09,-7.44 20.36,0 39,2.47 56.08,7.44 17.08,4.97 31.85,11.84 44.37,20.6 12.52,8.76 22.28,19.18 29.16,31.27 a 77,77 0 0 1 10.27,38.85 v 277 z m 0,-220.9 c -10.88,12.36 -25.89,22.37 -45.07,30.18 -19.18,7.81 -42.53,11.73 -70,11.73 -19,0 -35.69,2.48 -50.09,7.48 -14.4,5 -26.45,11.6 -35.84,19.87 a 87,87 0 0 0 -21.7,28 75.84,75.84 0 0 0 0,65.35 82.39,82.39 0 0 0 21.7,27.7 c 9.39,8.09 21.4,14.6 35.84,19.53 14.44,4.93 31.14,7.51 50.09,7.51 18.95,0 35.49,-2.54 49.72,-7.51 14.23,-4.97 26.13,-11.44 35.84,-19.53 a 81.56,81.56 0 0 0 22.06,-27.7 75.41,75.41 0 0 0 7.4,-32.67 z"
         id="path106" />
      <path
         class="cls-7"
         d="M 1718.02,920.9 V 679.43 a 155.55,155.55 0 0 0 -7.07,-47.23 114.75,114.75 0 0 0 -21,-39.08 101.9,101.9 0 0 0 -34.06,-26.61 q -20.25,-10 -46.54,-10 -26.29,0 -46.49,10 a 101.73,101.73 0 0 0 -34.07,26.61 113.13,113.13 0 0 0 -21,39.08 154,154 0 0 0 -7.14,47.23 V 920.9 h -36.2 V 552.96 h 36.2 v 67.51 q 14.25,-32.73 44.44,-53.65 30.19,-20.92 75.58,-20.95 32,0 56.87,10.66 a 124.15,124.15 0 0 1 41.87,28.72 122.62,122.62 0 0 1 25.93,42.66 149.62,149.62 0 0 1 8.84,51.49 v 241.47 z"
         id="path108" />
      <path
         class="cls-7"
         d="m 1867.19,563.65 v 323.78 c 0,8.09 1.27,15.09 3.87,21 2.6,5.91 6.75,8.91 12.43,8.91 4.73,0 8.53,-1.44 11.39,-4.28 v 12.05 c -4.24,1.9 -10,2.85 -17.07,2.85 -16.6,0 -28.51,-3.78 -35.83,-11.4 -7.32,-7.62 -11,-17.49 -11,-29.79 V 563.65 h -38.35 v -10.69 h 38.35 v -63.91 l 36.25,-15.63 v 79.54 h 41.85 v 10.66 z"
         id="path110" />
      <path
         class="cls-7"
         d="m 2201.66,920.9 v -37 q -16.32,19.19 -48.63,31.63 -32.31,12.44 -74.21,12.43 -33.42,0 -60,-7.45 -26.58,-7.45 -45.11,-21 -18.46,-13.56 -28.38,-31.42 a 77.23,77.23 0 0 1 -10,-38.48 73.59,73.59 0 0 1 11,-39.21 c 7.31,-11.84 17.72,-22.2 31.2,-31 13.48,-8.8 29.47,-15.7 48,-20.67 18.53,-4.97 38.82,-7.47 61.06,-7.47 q 28.45,0 49.74,-7.47 c 14.21,-4.94 26.13,-11.51 35.87,-19.79 a 82.85,82.85 0 0 0 21.93,-27.91 73.75,73.75 0 0 0 7.52,-32.56 79.83,79.83 0 0 0 -6.74,-31.83 87.42,87.42 0 0 0 -19.53,-28 c -8.49,-8.23 -19.29,-14.85 -32.31,-19.73 -13.02,-4.88 -28,-7.46 -45.08,-7.46 -17.08,0 -32,2.44 -44.78,7.46 -12.78,5.02 -23.56,11.58 -32.27,19.86 a 79,79 0 0 0 -19.56,28 83.69,83.69 0 0 0 -6.38,32 h -36.24 a 76.75,76.75 0 0 1 10.28,-38.72 c 6.88,-12.09 16.46,-22.46 28.75,-31.27 12.29,-8.81 27,-15.59 44.11,-20.6 17.11,-5.01 35.69,-7.44 56.09,-7.44 20.4,0 39,2.47 56.1,7.44 17.1,4.97 31.84,11.84 44.4,20.6 12.56,8.76 22.23,19.18 29.11,31.27 a 76.45,76.45 0 0 1 10.29,38.72 v 277 z m 0,-220.9 c -10.88,12.36 -25.92,22.37 -45.08,30.18 -19.16,7.81 -42.44,11.73 -70,11.73 -18.91,0 -35.64,2.48 -50,7.48 -14.36,5 -26.44,11.6 -35.85,19.87 a 87.38,87.38 0 0 0 -21.69,28 74.84,74.84 0 0 0 0,65.35 82.73,82.73 0 0 0 21.69,27.7 c 9.41,8.09 21.41,14.6 35.85,19.53 14.44,4.93 31.13,7.51 50,7.51 18.87,0 35.55,-2.54 49.74,-7.51 14.19,-4.97 26.13,-11.44 35.87,-19.53 a 79.73,79.73 0 0 0 21.93,-27.7 74,74 0 0 0 7.52,-32.67 z"
         id="path112" />
      <path
         class="cls-7"
         d="m 2583.79,993.35 a 76.89,76.89 0 0 1 -10,38.36 c -6.63,11.77 -16.09,22.35 -28.4,31.56 -12.31,9.21 -27.57,16.47 -45.86,21.72 -18.29,5.25 -38.88,7.76 -62.09,7.76 -23.21,0 -43.78,-2.58 -61.79,-7.76 -18.01,-5.18 -33.25,-12.46 -45.82,-21.72 -12.57,-9.26 -22.05,-19.79 -28.37,-31.56 a 79,79 0 0 1 -9.58,-38.36 h 36.2 a 81.69,81.69 0 0 0 7.07,33.7 83.65,83.65 0 0 0 21,28.43 c 9.24,8.29 20.57,14.8 34.08,19.55 13.51,4.75 29.25,7.06 47.23,7.06 17.54,0 33.1,-2.35 46.86,-7.06 13.76,-4.71 25.32,-11.26 34.82,-19.55 a 81.1,81.1 0 0 0 28.42,-62.13 84.66,84.66 0 0 0 -7.12,-34.11 81.08,81.08 0 0 0 -21.3,-28.77 q -14.25,-12.44 -34.82,-19.5 c -13.76,-4.72 -29.32,-7.1 -46.86,-7.1 q -53.28,0 -82,-11 -28.72,-11 -28.74,-27.35 c 0,-8.09 5.39,-15.16 16.31,-21.31 10.92,-6.15 26.74,-10.65 47.59,-13.5 q -42.6,-14.23 -65.36,-52.54 -22.76,-38.31 -22.72,-85.93 a 174.5,174.5 0 0 1 8.88,-56.12 137.65,137.65 0 0 1 26.3,-46.52 124.22,124.22 0 0 1 42.58,-32 c 16.85,-7.82 35.86,-11.72 57.18,-11.72 h 128.6 v 10.66 h -73.89 a 112.7,112.7 0 0 1 34.84,21.3 129.59,129.59 0 0 1 25.19,31.28 146.73,146.73 0 0 1 15.6,39 179.35,179.35 0 0 1 5.35,44.08 176.2,176.2 0 0 1 -8.83,56.1 135.72,135.72 0 0 1 -26.35,46.15 126.27,126.27 0 0 1 -42.63,31.58 q -25.2,11.79 -57.85,11.74 -36.21,0 -55.41,8.16 c -12.78,5.48 -19.16,11.95 -19.16,19.55 0,7.6 6.38,14.09 19.16,19.54 12.78,5.45 31.27,8.15 55.41,8.15 23.21,0 43.86,2.72 62.09,8.12 18.23,5.4 33.56,12.71 45.86,21.71 a 95.17,95.17 0 0 1 28.4,32 79.32,79.32 0 0 1 9.93,38.35 z M 2536.9,692.23 a 192.42,192.42 0 0 0 -6.39,-49.06 150.87,150.87 0 0 0 -18.83,-43.3 103.33,103.33 0 0 0 -31.28,-31.24 q -18.78,-12 -42.94,-12.07 -24.9,0 -43.32,12.07 a 101.23,101.23 0 0 0 -30.51,31.24 156.37,156.37 0 0 0 -18.52,43.3 194.2,194.2 0 0 0 0,98.05 155.73,155.73 0 0 0 18.52,43.28 97.36,97.36 0 0 0 30.51,30.93 q 18.45,11.73 43.32,11.73 24.16,0 42.94,-11.73 a 99.38,99.38 0 0 0 31.28,-30.93 150.26,150.26 0 0 0 18.83,-43.28 192.12,192.12 0 0 0 6.39,-48.99 z"
         id="path114" />
      <path
         class="cls-7"
         d="m 2891.98,920.9 v -37 q -16.3,19.19 -48.63,31.63 -32.33,12.44 -74.22,12.43 -33.37,0 -60,-7.45 -26.63,-7.45 -45.09,-21 c -12.32,-9 -21.82,-19.54 -28.4,-31.42 a 76.94,76.94 0 0 1 -10,-38.48 73.07,73.07 0 0 1 11.05,-39.21 c 7.32,-11.84 17.71,-22.2 31.22,-31 13.51,-8.8 29.49,-15.7 48,-20.67 18.51,-4.97 38.84,-7.47 61,-7.47 19,0 35.57,-2.51 49.73,-7.47 14.16,-4.96 26.18,-11.51 35.88,-19.79 a 82.87,82.87 0 0 0 22,-27.91 74.79,74.79 0 0 0 7.45,-32.56 79.33,79.33 0 0 0 -6.75,-31.83 86.7,86.7 0 0 0 -19.5,-28 c -8.48,-8.23 -19.3,-14.85 -32.34,-19.73 -13.04,-4.88 -28,-7.46 -45.12,-7.46 -17.12,0 -31.94,2.44 -44.75,7.46 -12.81,5.02 -23.56,11.58 -32.26,19.86 a 78.83,78.83 0 0 0 -19.52,28 83.5,83.5 0 0 0 -6.38,32 h -36.27 a 77.08,77.08 0 0 1 10.31,-38.72 c 6.86,-12.09 16.47,-22.46 28.82,-31.27 12.35,-8.81 26.93,-15.59 44,-20.6 17.07,-5.01 35.67,-7.44 56.07,-7.44 20.4,0 39,2.47 56.12,7.44 17.12,4.97 31.89,11.84 44.38,20.6 12.49,8.76 22.28,19.18 29.11,31.27 a 76.16,76.16 0 0 1 10.29,38.72 v 277 z m 0,-220.9 c -10.87,12.36 -25.93,22.37 -45.12,30.18 -19.19,7.81 -42.43,11.73 -70,11.73 q -28.38,0 -50,7.48 -21.62,7.48 -35.86,19.87 a 87.27,87.27 0 0 0 -21.66,28 75.2,75.2 0 0 0 0,65.35 82.64,82.64 0 0 0 21.66,27.7 q 14.2,12.13 35.86,19.53 c 14.46,5 31.13,7.51 50,7.51 18.87,0 35.57,-2.54 49.73,-7.51 14.16,-4.97 26.18,-11.44 35.88,-19.53 a 79.75,79.75 0 0 0 22,-27.7 75,75 0 0 0 7.45,-32.67 z"
         id="path116" />
      <path
         class="cls-7"
         d="m 3051.79,922.34 c -16.6,0 -28.52,-3.7 -35.85,-11 -7.33,-7.3 -11.05,-17.2 -11.05,-29.56 V 410.27 h 36.24 v 478 a 34.11,34.11 0 0 0 3.93,15.93 c 2.56,5 6.46,7.45 11.66,7.45 a 13.38,13.38 0 0 0 6.82,-1.76 c 2.13,-1.19 3.88,-2.22 5.3,-3.19 v 12.79 c -4.23,1.89 -9.94,2.85 -17.05,2.85 z"
         id="path118" />
      <path
         class="cls-7"
         d="m 3164.72,922.34 c -16.58,0 -28.54,-3.7 -35.85,-11 -7.31,-7.3 -11,-17.2 -11,-29.56 V 410.27 h 36.21 v 478 a 34.08,34.08 0 0 0 3.9,15.93 c 2.59,5 6.51,7.45 11.73,7.45 a 13.33,13.33 0 0 0 6.78,-1.76 c 2.1,-1.19 3.87,-2.22 5.3,-3.19 v 12.79 c -4.29,1.89 -9.94,2.85 -17.07,2.85 z"
         id="path120" />
      <path
         class="cls-7"
         d="m 3274.08,495.48 a 19.19,19.19 0 0 1 -7.81,16 27.34,27.34 0 0 1 -17.06,6 28.44,28.44 0 0 1 -17.72,-6 20.31,20.31 0 0 1 0,-32 27.24,27.24 0 0 1 17.05,-6.07 28.06,28.06 0 0 1 17.73,6.07 19.08,19.08 0 0 1 7.81,16 z m 3.58,426.86 c -16.57,0 -28.53,-3.7 -35.81,-11 -7.28,-7.3 -11.09,-17.2 -11.09,-29.56 V 553.73 H 3267 v 334.52 a 34.07,34.07 0 0 0 3.89,15.93 c 2.57,5 6.53,7.45 11.75,7.45 a 12.48,12.48 0 0 0 6.74,-2 63.89,63.89 0 0 0 5.29,-3.7 v 13.54 c -4.25,1.91 -9.94,2.87 -17.03,2.87 z"
         id="path122" />
    </g>
    <g
       id="g1287"
       transform="translate(-1.5317206,171.24079)">
      <path
         class="cls-7"
         d="m 1159.4,1065.17 0.9,-0.58 c 5.24,-3.33 9.11,-5.08 11.46,-5.08 a 10.48,10.48 0 0 1 6.83,2 7.1,7.1 0 0 1 2.36,5.71 6.43,6.43 0 0 1 -1.27,4 4.2,4.2 0 0 1 -3.41,1.58 c -1.7,0 -3.39,-1 -4.88,-3.05 -1.49,-2.05 -2.93,-3 -4.21,-3 a 3.78,3.78 0 0 0 -1.88,0.53 21.88,21.88 0 0 0 -2.73,2 23.74,23.74 0 0 1 3.86,8.35 45.06,45.06 0 0 1 1.36,11.54 c 0,8.41 -2.86,16.27 -8.54,23.68 -5.68,7.41 -12.5,12.17 -20.72,14.1 -1.42,0.4 -3.53,0.91 -6.27,1.54 q -27.79,6.59 -27.79,14.53 c 0,4.16 7.28,7.92 21.72,11.34 4.36,1 7.77,1.74 10.24,2.38 8.89,2.13 15.48,5.12 19.65,9 a 18.86,18.86 0 0 1 6.44,14.61 c 0,8.27 -4.11,15.08 -12.2,20.27 -8.09,5.19 -18.86,7.85 -32.1,7.85 -12.65,0 -22.94,-2.16 -30.75,-6.34 -7.87,-4.34 -11.73,-9.75 -11.73,-16.42 a 17.34,17.34 0 0 1 5.22,-12.24 c 3.53,-3.75 6.85,-5.56 10,-5.56 a 2.85,2.85 0 0 1 2.12,1 2.23,2.23 0 0 1 1,1.76 c 0,0.68 -1.22,2.51 -3.64,5.45 -2.42,2.94 -3.62,5.85 -3.62,8.75 0,5.73 2.93,10.34 8.69,13.84 5.76,3.5 13.57,5.28 23.3,5.28 8.72,0 15.9,-1.76 21.67,-5.29 5.77,-3.53 8.53,-8 8.53,-13.35 q 0,-9.9 -25.8,-17.4 h -0.13 c -1.52,-0.4 -3.79,-1.06 -7,-2 q -23.09,-6.32 -23.08,-17 c 0,-5.34 2.5,-9.91 7.46,-13.8 4.96,-3.89 12.16,-6.79 21.61,-8.7 -5.24,-2.2 -9.23,-5.36 -11.65,-9.5 -2.42,-4.14 -3.74,-9.4 -3.74,-15.9 0,-10.71 3.81,-20.29 11.54,-28.78 7.73,-8.49 16.41,-12.89 26.17,-12.89 a 19.72,19.72 0 0 1 7.14,1.38 36.14,36.14 0 0 1 7.87,4.41 z m -14.82,-0.7 q -8.07,0 -16.07,15.5 a 67.22,67.22 0 0 0 -8.13,31.94 c 0,3.92 0.85,6.91 2.45,9 a 8.25,8.25 0 0 0 6.82,3 11,11 0 0 0 5.06,-1.12 15,15 0 0 0 4.35,-3.55 c 4,-4.58 7.57,-11.08 10.58,-19.43 3.01,-8.35 4.63,-15.9 4.63,-22.22 0,-4.36 -0.81,-7.67 -2.45,-9.84 -1.64,-2.17 -4.05,-3.28 -7.24,-3.28 z"
         id="path126" />
      <path
         class="cls-7"
         d="m 1230.92,1085.48 -16.44,50.41 a 11.19,11.19 0 0 0 -0.83,3.13 15.68,15.68 0 0 0 -0.31,3.14 6.74,6.74 0 0 0 1.88,5.13 c 1.21,1.23 3,1.79 5.38,1.79 7.13,0 14.47,-5.09 22.16,-15.29 7.69,-10.2 14.22,-23.76 19.68,-40.73 l 9.46,-30.07 h 14.18 l -21.64,70.84 c -0.64,2.09 -1.16,4 -1.49,5.57 a 24.58,24.58 0 0 0 -0.51,3.9 4.91,4.91 0 0 0 1.25,3.59 4,4 0 0 0 3.26,1.31 c 2.73,0 5.36,-1.49 8,-4.39 2.64,-2.9 5.17,-7.52 8,-13.82 h 4 c -2.38,8 -5.81,14.49 -10.22,19.33 -4.41,4.84 -8.93,7.27 -13.61,7.27 -4,0 -7,-1.09 -9,-3.26 -2,-2.17 -3,-5.47 -3,-9.86 a 49.32,49.32 0 0 1 1.67,-10.71 c 1.07,-4.65 3,-10.94 5.63,-18.92 l -0.74,-0.52 c -5,13.7 -11.16,24.39 -18.28,31.95 -7.12,7.56 -14.36,11.32 -22,11.32 a 17.87,17.87 0 0 1 -12.55,-4.48 c -3.26,-3 -4.79,-6.78 -4.79,-11.6 a 29.71,29.71 0 0 1 0.3,-3.81 19.67,19.67 0 0 1 1.11,-4.2 l 16.15,-50.19 c 0.91,-3 1.63,-5.29 2,-6.89 a 13,13 0 0 0 0.68,-3 5.4,5.4 0 0 0 -0.79,-3.1 2.67,2.67 0 0 0 -2.15,-1.2 c -2.07,0 -4.37,1.57 -6.89,4.65 a 60.32,60.32 0 0 0 -8,13.44 h -4.39 c 3.19,-8.41 7.11,-14.87 11.76,-19.58 4.65,-4.71 9.21,-7.1 14,-7.1 a 9.77,9.77 0 0 1 7.49,3.07 10.56,10.56 0 0 1 3,7.74 32.81,32.81 0 0 1 -0.9,6.15 c -0.66,2.72 -1.46,5.68 -2.51,8.99 z"
         id="path128" />
      <path
         class="cls-7"
         d="m 1349.51,1059.51 a 24.16,24.16 0 0 1 14.14,4.34 c 4.08,2.82 6.22,6 6.22,9.46 a 5.39,5.39 0 0 1 -1.58,3.86 6,6 0 0 1 -4,1.5 c -2,0 -3.83,-2.33 -5.47,-7 -1.64,-4.67 -5,-6.93 -9.75,-6.93 a 13,13 0 0 0 -9.33,3.7 12.38,12.38 0 0 0 -3.76,9.18 q 0,5.82 9,23.37 c 6,11.62 9,20.88 9,27.69 a 26,26 0 0 1 -8.68,19.89 q -8.62,8 -21.64,8.05 c -6.48,0 -12,-1.67 -16.35,-4.92 -4.35,-3.25 -6.62,-7.11 -6.62,-11.56 a 9.38,9.38 0 0 1 1.77,-5.64 4.89,4.89 0 0 1 4.12,-2.28 5.46,5.46 0 0 1 4.41,1.93 8.06,8.06 0 0 1 1.62,5.31 15.76,15.76 0 0 1 -0.4,2.91 14.85,14.85 0 0 0 -0.28,2.22 6.13,6.13 0 0 0 3.18,5.32 c 2.12,1.32 5,2 8.81,2 a 16.9,16.9 0 0 0 12.33,-4.87 15.9,15.9 0 0 0 4.91,-11.89 c 0,-4.64 -2.84,-12.63 -8.51,-23.79 -5.67,-11.16 -8.52,-19.81 -8.52,-25.85 a 25.23,25.23 0 0 1 7.56,-18.24 c 5.15,-5.13 11.06,-7.76 17.82,-7.76 z"
         id="path130" />
      <path
         class="cls-7"
         d="m 1420.55,1029.45 h 14.91 l -10.38,33.31 h 16.28 v 4.69 h -17.42 l -20.41,66.16 a 31.48,31.48 0 0 0 -1.36,5.3 24.89,24.89 0 0 0 -0.51,4.39 5.19,5.19 0 0 0 1.18,3.59 4.16,4.16 0 0 0 3.34,1.31 c 2.46,0 5.41,-2 8.82,-6.12 3.41,-4.12 7.57,-10.55 12.37,-19.33 h 4.5 c -5.12,11.37 -10.26,19.87 -15.45,25.36 -5.19,5.49 -10.46,8.24 -16.13,8.24 a 10.91,10.91 0 0 1 -8.83,-4.24 c -2.34,-2.79 -3.41,-6.51 -3.41,-11.14 a 49.25,49.25 0 0 1 1.94,-11.23 l 0.24,-0.66 18.64,-61.63 h -15.25 l 1.34,-4.69 h 15.25 z"
         id="path132" />
      <path
         class="cls-7"
         d="m 1492.4,1092.41 -14.59,45.71 a 39.45,39.45 0 0 0 -1.12,4 16,16 0 0 0 -0.3,2.74 5,5 0 0 0 1.38,3.7 4.58,4.58 0 0 0 3.52,1.42 c 3.24,0 6.43,-1.68 9.52,-5.07 3.09,-3.39 6.48,-8.6 10,-15.81 h 5.19 c -4.92,10.21 -9.47,17.36 -13.76,21.4 a 20.17,20.17 0 0 1 -14.42,6.11 c -5,0 -8.74,-1.09 -11.19,-3.23 -2.45,-2.14 -3.78,-5.25 -3.78,-9.4 a 40.65,40.65 0 0 1 1.25,-8.43 121,121 0 0 1 3.49,-12.26 l 11.77,-35.82 c 1.32,-4 2.24,-7.36 2.89,-10 a 27.49,27.49 0 0 0 0.95,-6.23 4.8,4.8 0 0 0 -1,-3.11 3.84,3.84 0 0 0 -2.86,-1 c -2.87,0 -5.94,1.63 -9.25,4.79 a 58.63,58.63 0 0 0 -9.65,13.64 h -5.15 a 61.45,61.45 0 0 1 13.35,-18.87 c 5.09,-4.7 9.86,-7.1 14.32,-7.1 4.2,0 7.47,1.24 9.85,3.55 a 12.7,12.7 0 0 1 3.7,9.54 42,42 0 0 1 -1.11,8.7 85.13,85.13 0 0 1 -3,11.03 z m 3.53,-80.57 a 9.77,9.77 0 0 1 7.08,2.89 9.67,9.67 0 0 1 0,14 9.71,9.71 0 0 1 -7,2.88 9.89,9.89 0 0 1 0,-19.78 z"
         id="path134" />
      <path
         class="cls-7"
         d="m 1689.5,1000.12 -42.06,138 c -0.41,1.41 -0.74,2.56 -1,3.62 a 14.79,14.79 0 0 0 -0.37,2.66 7,7 0 0 0 0.92,3.8 3.34,3.34 0 0 0 2.86,1.34 q 3.9,0 7.91,-4.43 c 2.74,-3 5.21,-7.19 7.71,-12.61 h 4.61 c -2.63,7.47 -6.09,13.32 -10.25,17.53 -4.16,4.21 -8.63,6.32 -13.3,6.32 -4.31,0 -7.57,-1.06 -9.69,-3.29 -2.12,-2.23 -3.25,-5.52 -3.25,-10 a 27.31,27.31 0 0 1 0.49,-5 35.81,35.81 0 0 1 1.13,-5.19 c -5.65,8.12 -10.89,14.08 -15.86,17.87 -4.97,3.79 -10,5.55 -15.16,5.55 -6.38,0 -11.29,-2.11 -14.8,-6.39 -3.35,-4.27 -5,-10.37 -5,-18.43 a 64.81,64.81 0 0 1 5,-24.4 100,100 0 0 1 15,-24.39 80.43,80.43 0 0 1 18.79,-17 c 6.45,-4.11 12.35,-6.2 17.63,-6.2 a 11.82,11.82 0 0 1 7.78,2.74 18.79,18.79 0 0 1 5.27,8.07 l 15.82,-52 a 2.86,2.86 0 0 1 0.21,-0.81 15.88,15.88 0 0 0 1,-4.84 c 0,-1.45 -1,-2.52 -2.81,-3.2 -1.81,-0.68 -4.58,-1 -8.24,-1 l 1,-4.55 a 105.8,105.8 0 0 0 13.86,-1.11 c 4.82,-0.58 9.77,-1.51 14.8,-2.66 z m -48.11,65.24 c -4.24,0 -8.9,2.59 -13.91,7.7 -5.01,5.11 -10.15,12.5 -15.39,22.12 a 128,128 0 0 0 -9.51,22.34 c -2.28,7.35 -3.48,13.64 -3.48,18.71 0,4.14 0.91,7.36 2.55,9.73 a 8.34,8.34 0 0 0 7.14,3.58 c 4.45,0 9.29,-2.83 14.53,-8.32 5.24,-5.49 9.91,-13.17 14.24,-22.91 a 196.81,196.81 0 0 0 9.08,-25 c 2.27,-8.06 3.44,-14 3.44,-17.62 a 10.88,10.88 0 0 0 -2.41,-7.38 7.87,7.87 0 0 0 -6.28,-2.95 z"
         id="path136" />
      <path
         class="cls-7"
         d="m 1708.23,1060.63 v -4.2 a 44,44 0 0 0 23.78,-10.17 c 6.62,-5.78 9.84,-12 9.84,-18.43 0,-1.73 -0.39,-3 -1.49,-3.76 a 7.71,7.71 0 0 0 -4.66,-1.21 h -2.08 a 10.11,10.11 0 0 1 -7.42,-2.93 9.92,9.92 0 0 1 -2.94,-7.36 11.74,11.74 0 0 1 3,-8.51 10.19,10.19 0 0 1 7.9,-3.27 12.88,12.88 0 0 1 11,5.61 c 2.87,3.73 4.2,8.61 4.2,14.68 0,9.84 -3.92,18.61 -11.79,26.24 -7.87,7.63 -17.64,12.09 -29.34,13.31 z"
         id="path138" />
      <path
         class="cls-7"
         d="m 1779.08,1003.96 h 67.84 l -1.45,5.38 c -8.52,0.53 -15,2.1 -19.56,4.64 a 17.68,17.68 0 0 0 -9,11.42 l -30.42,106.56 c 0,0.23 -0.07,0.4 -0.07,0.54 a 18.61,18.61 0 0 0 -0.71,4.4 c 0,3.89 1.57,6.69 4.6,8.43 3.03,1.74 8.28,2.64 15.35,2.87 l -1.49,5.16 h -67.82 l 1.64,-5.16 c 8.13,-0.37 14.5,-1.83 19.16,-4.46 a 18.51,18.51 0 0 0 9.18,-11.55 l 30.52,-106.81 c 0.23,-0.79 0.36,-1.57 0.54,-2.31 0.18,-0.74 0.1,-1.41 0.1,-2.2 0,-3.86 -1.38,-6.64 -4.33,-8.37 -2.95,-1.73 -8.07,-2.73 -15.63,-3.18 z"
         id="path140" />
      <path
         class="cls-7"
         d="m 1874.19,1029.45 h 15 l -10.49,33.31 h 16.3 v 4.69 h -17.42 l -20.43,66.16 a 37.05,37.05 0 0 0 -1.34,5.3 26.07,26.07 0 0 0 -0.52,4.39 5.1,5.1 0 0 0 1.28,3.59 3.71,3.71 0 0 0 3.2,1.31 c 2.53,0 5.45,-2 8.88,-6.12 3.43,-4.12 7.56,-10.55 12.35,-19.33 h 4.5 c -5.14,11.37 -10.27,19.87 -15.43,25.36 -5.16,5.49 -10.5,8.24 -16.09,8.24 a 11.07,11.07 0 0 1 -8.92,-4.24 q -3.37,-4.18 -3.38,-11.14 a 48.43,48.43 0 0 1 2,-11.23 l 0.21,-0.66 18.62,-61.63 h -15.18 l 1.27,-4.69 h 15.24 z"
         id="path142" />
      <path
         class="cls-7"
         d="m 1978.64,1070.32 3.93,-10.81 h 13.17 l -24.06,78.61 a 37.43,37.43 0 0 0 -1,3.62 17.9,17.9 0 0 0 -0.29,2.66 6.18,6.18 0 0 0 1,3.78 3.62,3.62 0 0 0 3,1.36 q 3.83,0 7.89,-4.43 a 47.18,47.18 0 0 0 7.6,-12.61 h 4.76 c -2.75,7.47 -6.13,13.32 -10.28,17.53 -4.15,4.21 -8.6,6.32 -13.38,6.32 -4.32,0 -7.6,-1.08 -9.75,-3.35 -2.15,-2.27 -3.32,-5.51 -3.32,-9.93 a 25.46,25.46 0 0 1 0.41,-4.52 c 0.31,-1.61 0.79,-3.51 1.36,-5.62 -5,7.86 -10.22,13.71 -15.31,17.6 -5.09,3.89 -10.22,5.82 -15.47,5.82 -6.44,0 -11.36,-2.11 -14.75,-6.39 -3.39,-4.28 -5,-10.37 -5,-18.43 a 64,64 0 0 1 5.1,-24.4 94.73,94.73 0 0 1 14.9,-24.39 80.26,80.26 0 0 1 18.74,-17 c 6.44,-4.11 12.4,-6.2 17.73,-6.2 a 11.8,11.8 0 0 1 7.76,2.74 19.14,19.14 0 0 1 5.26,8.04 z m -12.57,-5 c -4.2,0 -8.81,2.59 -13.92,7.7 -5.11,5.11 -10.14,12.5 -15.35,22.12 a 127.66,127.66 0 0 0 -9.58,22.34 c -2.3,7.35 -3.44,13.64 -3.44,18.71 0,4.14 0.83,7.36 2.55,9.73 a 8.21,8.21 0 0 0 7.08,3.58 c 4.53,0 9.41,-2.83 14.68,-8.44 5.27,-5.61 10,-13.19 14.35,-22.79 a 198.81,198.81 0 0 0 9,-24.76 c 2.29,-8.1 3.36,-14 3.36,-17.85 a 10.66,10.66 0 0 0 -2.45,-7.38 7.92,7.92 0 0 0 -6.27,-2.92 z"
         id="path144" />
      <path
         class="cls-7"
         d="m 2074.9,1000.12 -40,130.3 a 66.21,66.21 0 0 0 -1.86,7.4 40.42,40.42 0 0 0 -0.68,6.14 6.87,6.87 0 0 0 1.29,4.41 4.17,4.17 0 0 0 3.49,1.59 c 3,0 6,-1.7 8.94,-5.12 2.94,-3.42 6.63,-9.53 10.88,-18 h 4.78 q -6.19,15.26 -12.92,22.49 c -4.51,4.87 -9.5,7.27 -15,7.27 -5,0 -8.76,-1.22 -11.36,-3.71 -2.6,-2.49 -3.77,-6 -3.77,-10.72 a 46.23,46.23 0 0 1 0.74,-7.49 53.92,53.92 0 0 1 2,-8.29 l 33,-107.59 a 1.92,1.92 0 0 0 0.28,-0.53 18.15,18.15 0 0 0 0.82,-4.85 3.49,3.49 0 0 0 -2.28,-3.16 15.42,15.42 0 0 0 -6.46,-1.16 c -0.28,0 -0.73,0.08 -1.43,0.13 -0.7,0.05 -1.3,0.1 -1.71,0.1 l 1.07,-5.38 a 124.9,124.9 0 0 0 14.23,-1 c 5.03,-0.66 10.37,-1.56 15.95,-2.83 z"
         id="path146" />
      <path
         class="cls-7"
         d="m 2120.19,1092.41 -14.65,45.71 a 27,27 0 0 0 -1.06,4 17.09,17.09 0 0 0 -0.35,2.74 5.22,5.22 0 0 0 1.38,3.7 4.74,4.74 0 0 0 3.57,1.4 c 3.25,0 6.38,-1.68 9.54,-5.07 3.16,-3.39 6.36,-8.6 9.89,-15.81 h 5.21 c -4.93,10.21 -9.48,17.36 -13.74,21.4 a 20,20 0 0 1 -14.45,6.11 c -5,0 -8.66,-1.09 -11.17,-3.23 -2.51,-2.14 -3.71,-5.25 -3.71,-9.4 a 36.08,36.08 0 0 1 1.22,-8.43 112.71,112.71 0 0 1 3.46,-12.26 l 11.76,-35.82 a 92.69,92.69 0 0 0 2.89,-10 26.61,26.61 0 0 0 1,-6.23 4.35,4.35 0 0 0 -1,-3.11 3.7,3.7 0 0 0 -2.85,-1 c -2.83,0 -5.94,1.63 -9.26,4.79 a 60.15,60.15 0 0 0 -9.64,13.64 h -5.15 a 60.59,60.59 0 0 1 13.33,-18.87 c 5,-4.7 9.86,-7.1 14.29,-7.1 4.18,0 7.55,1.24 9.93,3.55 a 12.79,12.79 0 0 1 3.66,9.54 45,45 0 0 1 -1.12,8.7 99.84,99.84 0 0 1 -2.98,11.05 z m 3.55,-80.57 a 9.92,9.92 0 0 1 7.06,2.89 9.36,9.36 0 0 1 2.93,7 9.23,9.23 0 0 1 -3,7 9.8994949,9.8994949 0 0 1 -14,-14 9.67,9.67 0 0 1 7.01,-2.89 z"
         id="path148" />
      <path
         class="cls-7"
         d="m 2225.02,1070.32 3.82,-10.81 h 13.24 l -24.06,78.61 a 28,28 0 0 0 -1,3.62 12.3,12.3 0 0 0 -0.35,2.66 6.06,6.06 0 0 0 1.1,3.78 3.45,3.45 0 0 0 3,1.36 q 3.84,0 7.92,-4.43 a 46.42,46.42 0 0 0 7.61,-12.61 h 4.67 c -2.69,7.47 -6.17,13.32 -10.2,17.53 -4.24,4.21 -8.62,6.32 -13.42,6.32 -4.32,0 -7.57,-1.08 -9.77,-3.35 -2.2,-2.27 -3.26,-5.51 -3.26,-9.93 a 25.34,25.34 0 0 1 0.39,-4.52 c 0.28,-1.61 0.74,-3.51 1.32,-5.62 q -7.57,11.79 -15.28,17.6 -7.71,5.81 -15.45,5.82 c -6.45,0 -11.37,-2.11 -14.75,-6.39 -3.38,-4.28 -5,-10.37 -5,-18.43 a 64.53,64.53 0 0 1 5.1,-24.4 97.1,97.1 0 0 1 14.86,-24.39 84.26,84.26 0 0 1 18.69,-17 c 6.54,-4.11 12.46,-6.2 17.8,-6.2 a 11.82,11.82 0 0 1 7.79,2.74 19.4,19.4 0 0 1 5.23,8.04 z m -12.6,-5 c -4.29,0 -8.81,2.59 -13.85,7.7 -5.04,5.11 -10.2,12.5 -15.4,22.12 a 120.83,120.83 0 0 0 -9.63,22.34 c -2.34,7.35 -3.45,13.64 -3.45,18.71 0,4.14 0.83,7.36 2.57,9.73 a 8.15,8.15 0 0 0 7.06,3.58 c 4.54,0 9.44,-2.83 14.65,-8.44 5.21,-5.61 10.05,-13.19 14.41,-22.79 a 192.2,192.2 0 0 0 9,-24.76 c 2.23,-8.1 3.46,-14 3.46,-17.85 a 10.89,10.89 0 0 0 -2.52,-7.38 7.9,7.9 0 0 0 -6.3,-2.92 z"
         id="path150" />
    </g>
    <path
       class="cls-7"
       d="m 3349.0794,553.72395 a 47.207665,47.207665 0 1 1 -0.3475,94.41469 c -26.8502,0 -48.1036,-20.63149 -48.1036,-47.55486 0,-26.21005 21.2534,-46.93299 48.1036,-46.93299 z m -0.695,8.23065 c -21.2168,0 -37.3855,17.43069 -37.3855,38.70234 0,21.80207 16.1687,38.9767 38.0805,38.9767 20.9607,0.21948 36.8001,-17.17463 36.8001,-38.70234 0,-21.52772 -15.8943,-38.95841 -37.1476,-38.95841 z m -8.2124,64.67461 h -9.1452 v -49.23757 a 91.341912,91.341912 0 0 1 17.2112,-1.5181 c 8.2124,0 12.3643,1.5181 15.3456,3.85926 a 12.803232,12.803232 0 0 1 4.9384,10.60839 c 0,5.94436 -4.3897,9.73046 -9.4378,11.48633 v 0.62187 c 4.1336,1.701 6.5662,5.67001 8.0295,12.1082 1.4083,7.31613 2.5789,10.26088 3.9141,12.07162 h -9.5476 c -1.4632,-1.82903 -2.6521,-6.18213 -4.1519,-12.6752 -1.1157,-5.65171 -4.3165,-8.01116 -11.1754,-8.01116 h -5.9077 z m 0,-27.78301 h 6.2187 c 6.5479,0 12.6203,-2.01194 12.6203,-7.66365 0,-4.68233 -3.1642,-8.26723 -11.8155,-8.26723 a 29.264529,29.264529 0 0 0 -7.0235,0.64016 z"
       id="path124"
       style="stroke-width:1.82903" />
    <g
       aria-label="Caffetteria · Gelateria · Yogurteria"
       id="text1436"
       style="font-size:224.127px;line-height:1.25;font-family:Garamond;-inkscape-font-specification:'Garamond, Normal';fill:#ffffff;stroke-width:5.60314"
       transform="translate(-1.5317206,25.240792)">
      <path
         d="m 425.3565,124.46719 q 1.31325,8.42665 1.31325,17.29105 0,1.75099 -0.10944,4.70579 -1.53212,0.32831 -2.29818,0.32831 -0.65662,0 -1.86043,-0.21887 -4.59635,-12.80413 -14.99287,-19.69867 -10.39651,-6.89453 -25.71769,-6.89453 -8.09834,0 -13.67963,1.86043 -9.84933,3.39255 -17.29105,9.41158 -7.44172,5.9096 -12.58525,14.22682 -5.14354,8.20777 -8.20778,20.02697 -2.9548,11.70976 -2.9548,23.9667 0,23.41952 7.11341,38.74071 7.1134,15.21174 19.47978,21.77796 12.36639,6.45678 24.95164,6.45678 l 5.14354,-0.10943 q 8.75496,-1.09437 11.92864,-2.07931 7.9889,-2.29817 13.13244,-5.36241 5.25297,-3.17367 10.17764,-8.8644 5.0341,-5.69072 8.53609,-13.24188 l 1.31324,-0.43774 q 0.54719,0 1.64156,0.65662 -0.10944,2.62649 -0.21888,3.39255 -4.59635,18.49485 -6.67566,25.27995 -1.75099,0.43774 -4.37748,1.31324 -12.80413,4.37748 -34.25378,4.37748 -17.29105,0 -25.93657,-2.40761 -8.53609,-2.29818 -18.71373,-7.22285 -10.06821,-5.0341 -17.7288,-13.24188 -7.66059,-8.20777 -12.36638,-20.68359 -4.70579,-12.58526 -4.70579,-27.35925 0,-14.00794 3.72086,-24.40446 3.72086,-10.50595 11.49088,-21.23078 7.77003,-10.72482 18.27598,-17.83823 10.61539,-7.11341 23.52896,-10.0682 9.08327,-1.96987 25.7177,-1.96987 12.14751,0 22.87233,3.28311 10.72483,3.17367 14.33625,6.23791 z"
         id="path900" />
      <path
         d="m 527.02348,243.53466 q 0.65663,1.42268 0.65663,2.0793 0,1.64156 -2.62649,5.80016 -3.39255,5.47185 -7.55116,7.9889 -2.62648,1.64156 -7.22284,1.64156 -7.87946,0 -11.8192,-4.81523 -2.40761,-2.84536 -3.39254,-10.17764 l -12.25695,8.53609 q -6.45678,3.72085 -9.84933,4.70579 -5.47185,1.42268 -13.13244,1.42268 -5.58129,0 -8.8644,-3.28311 -3.17367,-3.39255 -3.17367,-8.64553 0,-7.55115 9.19271,-18.0571 9.30214,-10.50596 25.17051,-17.18161 11.16257,-4.7058 13.67963,-6.01904 0.21887,-3.61142 0.21887,-7.87946 0,-13.8985 -3.93973,-18.82317 -3.8303,-4.92467 -11.05314,-4.92467 -7.55116,0 -14.11738,5.9096 -4.04917,3.72086 -6.12847,14.00794 -0.65662,2.84536 -2.51705,6.12847 -4.70579,3.06424 -7.55115,3.06424 -2.40762,0 -4.37748,-1.42268 -1.09437,-0.76606 -1.09437,-1.75099 0,-2.84537 6.01903,-12.80413 6.12847,-10.06821 15.32118,-14.99287 9.30215,-5.03411 16.19668,-5.03411 9.41158,0 14.00794,1.75099 4.59635,1.64156 8.09834,5.9096 3.50198,4.26805 4.26804,9.30215 0.43775,2.40761 0.43775,17.18161 l -0.32831,17.40048 0.10943,12.6947 q 0,2.51705 -0.10943,4.26804 -0.10944,3.17368 -0.10944,4.70579 0,3.61142 2.0793,5.80016 2.07931,2.18874 4.92467,2.18874 4.15861,0 7.1134,-4.1586 l 1.31325,-1.75099 q 0.54718,-0.32831 2.40761,-0.76606 z M 494.849,240.36098 q 0.76606,-13.8985 0.76606,-19.58922 0,-2.9548 -0.32831,-7.9889 -7.33228,2.62649 -15.54006,7.9889 -8.20777,5.36241 -13.023,12.36638 -3.50198,5.0341 -3.50198,9.52102 0,4.26804 2.84536,7.11341 2.9548,2.84536 7.33228,2.84536 3.39255,0 8.20777,-2.40762 6.34735,-3.17367 13.24188,-9.84933 z"
         id="path902" />
      <path
         d="m 569.3756,173.16666 q 27.24982,0.65662 29.00081,0.65662 0.21888,2.40762 0.21888,3.61142 0,1.42268 -0.32832,4.26805 -2.73592,0.43774 -5.58128,0.43774 h -4.15861 q -13.57019,0 -18.82317,0.98494 -0.21887,2.51705 -0.21887,3.83029 0,0.54719 0.10944,1.64156 0.54718,17.18161 0.54718,20.79303 l -0.21887,28.12531 q 0,6.23791 2.0793,10.39652 1.20381,2.40761 4.48692,3.83029 2.0793,0.98494 10.0682,1.96987 6.01904,0.8755 8.09834,1.20381 0,2.29817 -0.32831,3.50198 l -1.53212,0.10944 q -5.25297,-0.32831 -13.67962,-0.54719 l -8.09834,-0.32831 -27.57813,0.8755 h -3.61142 l -0.10944,-3.39255 q 1.64156,-0.32831 2.40762,-0.54718 9.41158,-1.751 12.14751,-3.93974 1.09437,-0.87549 1.53211,-3.17367 0.21888,-1.31324 0.21888,-12.25695 0,-31.18954 -0.54719,-49.79384 -2.84536,-0.87549 -8.75496,-1.09437 -2.18874,0 -6.89453,-0.43774 l -0.21887,-1.20381 q 0,-1.31325 1.09437,-2.18874 0.43774,-0.43775 9.19271,-4.59636 3.39254,-1.53211 4.81522,-3.83029 0.76606,-1.20381 0.8755,-5.0341 0.10944,-1.751 0.65662,-6.01904 1.31325,-11.27201 2.07931,-13.8985 1.96986,-7.33228 6.56622,-14.55512 4.70579,-7.33228 11.27201,-12.80413 4.81523,-3.93973 10.83426,-5.9096 6.12847,-1.96987 13.8985,-1.96987 10.39652,0 15.21175,3.39255 3.28311,2.29818 3.28311,5.9096 0,3.06424 -2.29818,5.25298 -2.29818,2.18874 -5.69072,2.18874 -4.15861,0 -8.97384,-2.07931 -9.08327,-3.61142 -10.28708,-3.93973 -2.0793,-0.54719 -4.26804,-0.54719 -6.01904,0 -11.05314,3.8303 -4.92467,3.8303 -6.23791,9.41158 -1.31324,5.58129 -1.31324,25.06108 0,7.00397 0.10943,12.80413 z"
         id="path904" />
      <path
         d="m 641.71346,173.16666 q 27.24982,0.65662 29.00081,0.65662 0.21888,2.40762 0.21888,3.61142 0,1.42268 -0.32832,4.26805 -2.73592,0.43774 -5.58128,0.43774 h -4.15861 q -13.57019,0 -18.82317,0.98494 -0.21887,2.51705 -0.21887,3.83029 0,0.54719 0.10944,1.64156 0.54718,17.18161 0.54718,20.79303 l -0.21887,28.12531 q 0,6.23791 2.0793,10.39652 1.20381,2.40761 4.48692,3.83029 2.0793,0.98494 10.0682,1.96987 6.01904,0.8755 8.09834,1.20381 0,2.29817 -0.32831,3.50198 l -1.53212,0.10944 q -5.25297,-0.32831 -13.67962,-0.54719 l -8.09834,-0.32831 -27.57813,0.8755 h -3.61142 l -0.10944,-3.39255 q 1.64156,-0.32831 2.40762,-0.54718 9.41158,-1.751 12.14751,-3.93974 1.09437,-0.87549 1.53211,-3.17367 0.21888,-1.31324 0.21888,-12.25695 0,-31.18954 -0.54719,-49.79384 -2.84536,-0.87549 -8.75496,-1.09437 -2.18874,0 -6.89453,-0.43774 l -0.21887,-1.20381 q 0,-1.31325 1.09437,-2.18874 0.43774,-0.43775 9.19271,-4.59636 3.39254,-1.53211 4.81522,-3.83029 0.76606,-1.20381 0.8755,-5.0341 0.10944,-1.751 0.65662,-6.01904 1.31325,-11.27201 2.07931,-13.8985 1.96986,-7.33228 6.56622,-14.55512 4.70579,-7.33228 11.27201,-12.80413 4.81523,-3.93973 10.83426,-5.9096 6.12847,-1.96987 13.8985,-1.96987 10.39652,0 15.21175,3.39255 3.28311,2.29818 3.28311,5.9096 0,3.06424 -2.29818,5.25298 -2.29818,2.18874 -5.69072,2.18874 -4.15861,0 -8.97384,-2.07931 -9.08327,-3.61142 -10.28708,-3.93973 -2.0793,-0.54719 -4.26804,-0.54719 -6.01904,0 -11.05314,3.8303 -4.92467,3.8303 -6.23791,9.41158 -1.31324,5.58129 -1.31324,25.06108 0,7.00397 0.10943,12.80413 z"
         id="path906" />
      <path
         d="m 760.45262,200.63535 -43.88425,0.32831 h -8.31721 q -5.0341,0 -10.28708,0.43775 -0.98493,3.28311 -0.98493,4.48692 l 0.10944,1.09437 v 1.09437 l -0.10944,5.36241 q 0,6.67566 4.15861,16.41555 4.26804,9.63046 12.03807,14.774 7.87946,5.0341 19.58922,5.36241 6.23791,-0.32831 9.95877,-1.53212 3.72086,-1.2038 10.50595,-5.58128 l 7.87947,-6.45679 0.65662,4.37748 q 0,0.76606 -0.10944,1.64156 -4.92466,6.23791 -12.47582,10.9437 -7.55115,4.70579 -15.32118,6.89453 -3.72086,0.98493 -12.25694,0.98493 -7.77003,0 -15.32118,-3.17367 -11.16258,-4.81523 -17.61936,-15.43062 -6.34735,-10.72483 -6.34735,-25.93657 0,-4.81523 1.75099,-12.36638 1.86043,-7.55116 6.56622,-16.08724 3.17368,-5.80016 7.77003,-9.52102 6.56622,-5.25298 11.49089,-7.33228 7.1134,-2.9548 16.52499,-2.9548 10.17764,0 16.63442,3.72086 8.75496,4.92466 13.02301,12.69469 4.37748,7.77003 4.37748,14.22681 z m -61.06586,-3.93973 h 5.14354 q 5.58129,0 33.26885,-1.751 4.37749,-0.21887 5.36242,-0.87549 1.96986,-2.0793 1.96986,-3.72086 0,-3.39255 -2.18874,-7.66059 -2.18874,-4.37748 -6.78509,-6.67566 -4.48692,-2.40761 -10.50595,-2.40761 -12.6947,0 -20.35529,9.52102 -5.9096,7.22284 -5.9096,13.57019 z"
         id="path908" />
      <path
         d="m 798.42728,150.29432 3.39255,0.10944 0.43775,10.39652 -0.21888,13.46075 q 2.07931,0.10944 2.62649,0.10944 2.84536,0 10.83426,-0.43775 5.14354,-0.32831 9.84934,-0.32831 2.18874,0 6.56622,0.10943 0.21887,2.18874 0.21887,3.50199 0,1.42268 -0.65662,4.48692 h -1.86043 l -16.96274,0.54718 -8.42665,0.21888 -1.96986,0.21887 q -0.8755,2.73592 -0.8755,6.34735 l 0.32831,16.41555 -0.21887,28.89137 q 0,11.38145 2.9548,15.10231 2.84536,3.83029 8.53608,3.83029 2.84537,0 10.72483,-1.75099 2.40761,-0.54719 6.45678,-3.61142 h 0.98494 q 0.98493,0 1.53212,0.65662 0.65662,0.54718 0.65662,1.53212 l -0.10944,0.76606 q -4.70579,5.14354 -10.83426,7.55115 -6.01904,2.29818 -16.08724,2.29818 -7.11341,0 -11.8192,-3.28311 -4.59636,-3.28311 -5.9096,-7.77003 -1.31324,-4.48692 -1.31324,-19.58923 l 0.43774,-24.62332 -0.10943,-11.8192 v -4.37748 q 0,-3.06424 -0.21888,-6.12847 l -1.86043,-0.10944 -8.97383,0.32831 -0.8755,0.10944 q -1.2038,0 -1.86043,-0.54719 -0.54718,-0.54718 -0.54718,-1.31324 0,-1.31325 0.76606,-2.0793 0.87549,-0.8755 5.0341,-2.62649 2.84536,-1.20381 6.56622,-4.48692 3.8303,-3.39255 6.45678,-7.44172 1.31325,-2.18874 3.72086,-8.31721 1.751,-4.48692 2.62649,-6.34735 z"
         id="path910" />
      <path
         d="m 863.76114,150.29432 3.39255,0.10944 0.43775,10.39652 -0.21888,13.46075 q 2.07931,0.10944 2.62649,0.10944 2.84537,0 10.83427,-0.43775 5.14354,-0.32831 9.84933,-0.32831 2.18874,0 6.56622,0.10943 0.21887,2.18874 0.21887,3.50199 0,1.42268 -0.65662,4.48692 h -1.86043 l -16.96274,0.54718 -8.42665,0.21888 -1.96986,0.21887 q -0.8755,2.73592 -0.8755,6.34735 l 0.32831,16.41555 -0.21887,28.89137 q 0,11.38145 2.9548,15.10231 2.84536,3.83029 8.53609,3.83029 2.84536,0 10.72482,-1.75099 2.40762,-0.54719 6.45679,-3.61142 h 0.98493 q 0.98493,0 1.53212,0.65662 0.65662,0.54718 0.65662,1.53212 l -0.10944,0.76606 q -4.70579,5.14354 -10.83426,7.55115 -6.01904,2.29818 -16.08724,2.29818 -7.11341,0 -11.8192,-3.28311 -4.59635,-3.28311 -5.9096,-7.77003 -1.31324,-4.48692 -1.31324,-19.58923 l 0.43775,-24.62332 -0.10944,-11.8192 v -4.37748 q 0,-3.06424 -0.21887,-6.12847 l -1.86043,-0.10944 -8.97384,0.32831 -0.87549,0.10944 q -1.20381,0 -1.86043,-0.54719 -0.54719,-0.54718 -0.54719,-1.31324 0,-1.31325 0.76606,-2.0793 0.8755,-0.8755 5.0341,-2.62649 2.84536,-1.20381 6.56622,-4.48692 3.8303,-3.39255 6.45679,-7.44172 1.31324,-2.18874 3.72086,-8.31721 1.75099,-4.48692 2.62648,-6.34735 z"
         id="path912" />
      <path
         d="m 984.47019,200.63535 -43.88424,0.32831 h -8.31721 q -5.0341,0 -10.28708,0.43775 -0.98493,3.28311 -0.98493,4.48692 l 0.10943,1.09437 v 1.09437 l -0.10943,5.36241 q 0,6.67566 4.1586,16.41555 4.26805,9.63046 12.03808,14.774 7.87946,5.0341 19.58922,5.36241 6.23791,-0.32831 9.95877,-1.53212 3.72086,-1.2038 10.50595,-5.58128 l 7.87947,-6.45679 0.65662,4.37748 q 0,0.76606 -0.10944,1.64156 -4.92466,6.23791 -12.47582,10.9437 -7.55115,4.70579 -15.32118,6.89453 -3.72086,0.98493 -12.25694,0.98493 -7.77003,0 -15.32119,-3.17367 -11.16257,-4.81523 -17.61935,-15.43062 -6.34735,-10.72483 -6.34735,-25.93657 0,-4.81523 1.75099,-12.36638 1.86043,-7.55116 6.56622,-16.08724 3.17367,-5.80016 7.77003,-9.52102 6.56622,-5.25298 11.49089,-7.33228 7.1134,-2.9548 16.52498,-2.9548 10.17765,0 16.63443,3.72086 8.75496,4.92466 13.023,12.69469 4.37748,7.77003 4.37748,14.22681 z m -61.06585,-3.93973 h 5.14354 q 5.58129,0 33.26885,-1.751 4.37748,-0.21887 5.36242,-0.87549 1.96986,-2.0793 1.96986,-3.72086 0,-3.39255 -2.18874,-7.66059 -2.18874,-4.37748 -6.78509,-6.67566 -4.48692,-2.40761 -10.50596,-2.40761 -12.69469,0 -20.35528,9.52102 -5.9096,7.22284 -5.9096,13.57019 z"
         id="path914" />
      <path
         d="m 995.63273,258.7464 -0.43775,-1.42268 q 0,-0.76606 0.98494,-2.29818 l 6.45678,-1.31324 9.0833,-1.64156 q 1.0943,-0.54718 1.5321,-1.53211 0.6566,-1.42269 0.6566,-8.42665 0,-37.20859 -0.4377,-42.89931 -0.4378,-5.80016 -1.9699,-7.33228 -1.5321,-1.53212 -7.8795,-2.40762 -3.72083,-0.54718 -5.90957,-1.42268 l 0.43775,-3.28311 q 11.49092,-4.70579 15.43062,-8.09834 5.4719,-4.92466 9.3021,-12.91356 l 3.7209,0.10943 q 0.6566,5.47185 0.6566,24.29502 l -0.1094,1.86043 q 0,0.65662 0.2189,2.0793 4.1586,-7.55115 10.3965,-13.8985 l 2.517,-2.51705 q 1.5321,-1.75099 2.9548,-2.73592 7.6606,-4.59636 11.3815,-4.59636 4.8152,0 7.8794,3.28311 3.0643,3.17367 3.0643,7.87947 0,3.72085 -2.1888,5.80016 -2.9548,2.73592 -6.7851,2.73592 -1.7509,0 -6.8945,-1.86043 -5.1435,-1.86043 -6.7851,-1.86043 -3.0642,0 -4.268,0.98494 -3.0643,2.40761 -7.4417,9.84933 -3.3926,5.58129 -3.3926,10.28708 l 0.5472,18.0571 0.2189,21.66853 q 0.3283,3.72086 0.8755,4.81523 0.4377,0.76606 2.1887,1.86043 11.8192,0.98493 14.0079,1.42268 1.5322,0.10944 2.2982,0.21888 4.7058,0.10943 6.5662,1.31324 0.985,0.54718 0.985,1.64155 0,0.65663 -0.8755,1.751 l -12.1475,-0.10944 -4.5964,-0.10944 -6.6756,0.10944 h -11.1626 l -6.0191,0.32831 z"
         id="path916" />
      <path
         d="m 1081.4314,123.92 q 0,-3.61142 2.7359,-6.23791 2.8453,-2.62648 6.7851,-2.62648 4.0491,0 7.1134,2.9548 3.0642,2.95479 3.0642,6.34734 0,3.39255 -3.0642,6.45679 -3.0643,2.9548 -7.1134,2.9548 -4.0492,0 -6.7851,-2.73593 -2.7359,-2.73593 -2.7359,-7.11341 z m -9.1928,56.68838 0.1095,-3.17368 q 7.1134,-2.0793 7.6606,-2.40761 3.9397,-1.75099 8.2077,-5.36242 4.3775,-3.61142 7.3323,-8.09833 1.3133,-0.21888 2.0793,-0.21888 l 1.3133,0.10944 q 0.4377,5.25298 0.4377,7.66059 0,0.54718 -0.2189,4.92467 v 5.80016 l 0.1095,31.51786 -0.3283,33.37828 q -0.1095,4.04917 1.3132,5.69073 1.4227,1.53212 8.4267,3.50198 4.3774,1.20381 6.5662,2.07931 0.3283,0.76606 0.3283,1.31324 0,0.65662 -0.5472,1.64156 -4.268,-0.10944 -10.9437,-0.54719 -9.0833,-0.76606 -12.0381,-0.76606 -1.4226,0 -17.5099,0.54719 -3.2831,0.10943 -6.3473,0.54718 -0.5472,0 -1.751,-0.32831 -0.5472,-0.76606 -0.5472,-1.31324 0,-1.53212 2.0793,-2.40762 0.4377,-0.21887 11.1626,-2.51705 3.502,-0.65662 4.5963,-2.18874 1.8605,-2.29818 1.8605,-7.33228 0.2188,-8.42665 0.2188,-46.18242 0,-7.55115 -0.6566,-9.41158 -0.5472,-1.31324 -2.9548,-2.9548 -2.2982,-1.75099 -9.9588,-3.50198 z"
         id="path918" />
      <path
         d="m 1206.1896,243.53466 q 0.6566,1.42268 0.6566,2.0793 0,1.64156 -2.6265,5.80016 -3.3925,5.47185 -7.5511,7.9889 -2.6265,1.64156 -7.2229,1.64156 -7.8795,0 -11.8192,-4.81523 -2.4076,-2.84536 -3.3925,-10.17764 l -12.257,8.53609 q -6.4568,3.72085 -9.8493,4.70579 -5.4719,1.42268 -13.1324,1.42268 -5.5813,0 -8.8644,-3.28311 -3.1737,-3.39255 -3.1737,-8.64553 0,-7.55115 9.1927,-18.0571 9.3021,-10.50596 25.1705,-17.18161 11.1626,-4.7058 13.6796,-6.01904 0.2189,-3.61142 0.2189,-7.87946 0,-13.8985 -3.9397,-18.82317 -3.8303,-4.92467 -11.0532,-4.92467 -7.5511,0 -14.1173,5.9096 -4.0492,3.72086 -6.1285,14.00794 -0.6566,2.84536 -2.5171,6.12847 -4.7058,3.06424 -7.5511,3.06424 -2.4076,0 -4.3775,-1.42268 -1.0944,-0.76606 -1.0944,-1.75099 0,-2.84537 6.0191,-12.80413 6.1284,-10.06821 15.3211,-14.99287 9.3022,-5.03411 16.1967,-5.03411 9.4116,0 14.008,1.75099 4.5963,1.64156 8.0983,5.9096 3.502,4.26805 4.268,9.30215 0.4378,2.40761 0.4378,17.18161 l -0.3283,17.40048 0.1094,12.6947 q 0,2.51705 -0.1094,4.26804 -0.1095,3.17368 -0.1095,4.70579 0,3.61142 2.0793,5.80016 2.0793,2.18874 4.9247,2.18874 4.1586,0 7.1134,-4.1586 l 1.3133,-1.75099 q 0.5471,-0.32831 2.4076,-0.76606 z m -32.1745,-3.17368 q 0.7661,-13.8985 0.7661,-19.58922 0,-2.9548 -0.3284,-7.9889 -7.3322,2.62649 -15.54,7.9889 -8.2078,5.36241 -13.023,12.36638 -3.502,5.0341 -3.502,9.52102 0,4.26804 2.8454,7.11341 2.9548,2.84536 7.3322,2.84536 3.3926,0 8.2078,-2.40762 6.3474,-3.17367 13.2419,-9.84933 z"
         id="path920" />
      <path
         d="m 1321.9739,182.68768 q 0,-4.81523 3.502,-8.42665 3.6114,-3.61142 8.3172,-3.61142 4.5964,0 7.77,3.39255 3.1737,3.39254 3.1737,8.53608 0,5.25298 -3.3925,8.75496 -3.2832,3.39255 -7.9889,3.39255 -4.5964,0 -7.9889,-3.50198 -3.3926,-3.61143 -3.3926,-8.53609 z"
         id="path922" />
      <path
         d="m 1541.1762,125.56156 1.2038,16.63442 q 0.6567,7.55116 0.6567,10.28708 l -3.0643,0.54719 q -7.3323,-16.63443 -18.276,-24.95164 -10.8342,-8.31721 -26.5932,-8.31721 -19.2609,0 -29.9857,4.70579 -15.54,6.67566 -26.5932,23.20065 -11.0531,16.52498 -11.0531,39.83507 0,13.46075 4.0491,24.18558 4.0492,10.72482 11.3815,20.02697 7.4417,9.19271 17.5099,15.9778 6.5662,4.48692 15.6495,6.7851 5.1435,1.20381 15.3212,1.20381 6.5662,0 14.5551,-1.86043 7.9889,-1.86043 12.0381,-4.92467 4.0492,-3.17367 5.4718,-7.1134 1.5322,-3.93974 1.5322,-15.32119 0,-18.9326 -2.5171,-21.99684 -2.5171,-3.17367 -15.8684,-4.1586 l -4.3774,-0.32831 -2.9548,0.10943 q -0.6567,-0.10943 -1.751,-0.32831 l -1.6416,-2.73592 q 0,-0.54719 0.7661,-1.42268 5.6907,-0.8755 24.7327,-0.8755 4.2681,0 13.8985,0.21887 l 11.272,0.43775 10.1777,-0.10943 q 2.9548,0 7.1134,0.21887 0.7661,0.10944 0.9849,0.43775 0.2189,0.21887 0.2189,0.87549 0,1.20381 -0.5472,3.06424 -4.5963,0.98493 -7.1134,0.98493 l -7.1134,-0.10943 q -3.6114,0 -5.8002,2.51705 -1.0943,1.2038 -1.0943,8.20777 l 0.1094,14.33625 q 0,14.774 -1.2038,18.82317 -0.6566,2.40761 -2.7359,4.37748 -2.0793,1.86043 -8.755,4.48692 -9.521,3.83029 -17.291,5.14353 -14.4457,2.51706 -27.9065,2.51706 -21.6685,0 -35.567,-5.47185 -13.7891,-5.58129 -23.8573,-15.43062 -9.9587,-9.84933 -14.2268,-19.91754 -6.4568,-14.774 -6.4568,-30.09518 0,-19.15147 10.0682,-37.42745 10.1777,-18.38542 32.7217,-29.87631 15.8684,-8.09834 43.1182,-8.09834 18.8232,0 30.7518,3.28311 12.0381,3.28311 19.042,7.44172 z"
         id="path924" />
      <path
         d="m 1654.553,200.63535 -43.8843,0.32831 h -8.3172 q -5.0341,0 -10.2871,0.43775 -0.9849,3.28311 -0.9849,4.48692 l 0.1094,1.09437 v 1.09437 l -0.1094,5.36241 q 0,6.67566 4.1586,16.41555 4.268,9.63046 12.0381,14.774 7.8794,5.0341 19.5892,5.36241 6.2379,-0.32831 9.9588,-1.53212 3.7208,-1.2038 10.5059,-5.58128 l 7.8795,-6.45679 0.6566,4.37748 q 0,0.76606 -0.1094,1.64156 -4.9247,6.23791 -12.4759,10.9437 -7.5511,4.70579 -15.3211,6.89453 -3.7209,0.98493 -12.257,0.98493 -7.77,0 -15.3212,-3.17367 -11.1625,-4.81523 -17.6193,-15.43062 -6.3474,-10.72483 -6.3474,-25.93657 0,-4.81523 1.751,-12.36638 1.8605,-7.55116 6.5662,-16.08724 3.1737,-5.80016 7.7701,-9.52102 6.5662,-5.25298 11.4909,-7.33228 7.1134,-2.9548 16.5249,-2.9548 10.1777,0 16.6345,3.72086 8.7549,4.92466 13.023,12.69469 4.3775,7.77003 4.3775,14.22681 z m -61.0659,-3.93973 h 5.1435 q 5.5813,0 33.2689,-1.751 4.3775,-0.21887 5.3624,-0.87549 1.9699,-2.0793 1.9699,-3.72086 0,-3.39255 -2.1888,-7.66059 -2.1887,-4.37748 -6.7851,-6.67566 -4.4869,-2.40761 -10.5059,-2.40761 -12.6947,0 -20.3553,9.52102 -5.9096,7.22284 -5.9096,13.57019 z"
         id="path926" />
      <path
         d="m 1666.9194,122.82563 v -2.40761 q 3.0643,-0.98493 6.7851,-2.0793 5.4719,-1.751 16.1967,-5.36242 h 5.1435 q 0.1095,5.25298 0.1095,6.01904 0,89.84778 -0.5472,107.13883 -0.3283,10.17764 -0.3283,10.83427 0,12.25694 0.9849,13.67962 1.3133,1.96987 7.9889,2.73593 6.7851,0.76606 7.9889,1.53212 0.8755,0.43774 0.8755,1.53211 0,1.20381 -0.5472,1.751 -0.4377,0.43774 -1.751,0.43774 -0.766,0 -11.4909,-0.32831 l -14.3362,-0.43774 -18.3854,0.76605 q -1.751,0.10944 -2.6265,-0.65662 -0.6566,-0.54718 -0.6566,-1.53212 0,-1.09437 0.6566,-1.53211 0.766,-0.54719 7.8795,-1.751 7.2228,-1.2038 8.2077,-1.96986 1.0944,-0.8755 1.4227,-3.72086 0.4378,-3.93973 0.4378,-22.21571 l -0.1095,-25.17052 0.3283,-26.046 -0.1094,-26.04601 0.3283,-12.80413 q 0,-3.8303 -1.2038,-5.47185 -1.2038,-1.751 -5.1435,-3.39255 -5.9096,-2.40762 -8.0984,-3.50199 z"
         id="path928" />
      <path
         d="m 1801.5269,243.53466 q 0.6566,1.42268 0.6566,2.0793 0,1.64156 -2.6264,5.80016 -3.3926,5.47185 -7.5512,7.9889 -2.6265,1.64156 -7.2228,1.64156 -7.8795,0 -11.8192,-4.81523 -2.4077,-2.84536 -3.3926,-10.17764 l -12.2569,8.53609 q -6.4568,3.72085 -9.8494,4.70579 -5.4718,1.42268 -13.1324,1.42268 -5.5813,0 -8.8644,-3.28311 -3.1737,-3.39255 -3.1737,-8.64553 0,-7.55115 9.1927,-18.0571 9.3022,-10.50596 25.1705,-17.18161 11.1626,-4.7058 13.6797,-6.01904 0.2188,-3.61142 0.2188,-7.87946 0,-13.8985 -3.9397,-18.82317 -3.8303,-4.92467 -11.0531,-4.92467 -7.5512,0 -14.1174,5.9096 -4.0492,3.72086 -6.1285,14.00794 -0.6566,2.84536 -2.517,6.12847 -4.7058,3.06424 -7.5512,3.06424 -2.4076,0 -4.3775,-1.42268 -1.0943,-0.76606 -1.0943,-1.75099 0,-2.84537 6.019,-12.80413 6.1285,-10.06821 15.3212,-14.99287 9.3021,-5.03411 16.1967,-5.03411 9.4115,0 14.0079,1.75099 4.5964,1.64156 8.0983,5.9096 3.502,4.26805 4.2681,9.30215 0.4377,2.40761 0.4377,17.18161 l -0.3283,17.40048 0.1095,12.6947 q 0,2.51705 -0.1095,4.26804 -0.1094,3.17368 -0.1094,4.70579 0,3.61142 2.0793,5.80016 2.0793,2.18874 4.9247,2.18874 4.1586,0 7.1134,-4.1586 l 1.3132,-1.75099 q 0.5472,-0.32831 2.4076,-0.76606 z m -32.1745,-3.17368 q 0.7661,-13.8985 0.7661,-19.58922 0,-2.9548 -0.3283,-7.9889 -7.3323,2.62649 -15.5401,7.9889 -8.2077,5.36241 -13.023,12.36638 -3.502,5.0341 -3.502,9.52102 0,4.26804 2.8454,7.11341 2.9548,2.84536 7.3323,2.84536 3.3925,0 8.2078,-2.40762 6.3473,-3.17367 13.2418,-9.84933 z"
         id="path930" />
      <path
         d="m 1834.9052,150.29432 3.3926,0.10944 0.4377,10.39652 -0.2188,13.46075 q 2.0793,0.10944 2.6265,0.10944 2.8453,0 10.8342,-0.43775 5.1436,-0.32831 9.8494,-0.32831 2.1887,0 6.5662,0.10943 0.2188,2.18874 0.2188,3.50199 0,1.42268 -0.6566,4.48692 h -1.8604 l -16.9627,0.54718 -8.4267,0.21888 -1.9699,0.21887 q -0.8755,2.73592 -0.8755,6.34735 l 0.3284,16.41555 -0.2189,28.89137 q 0,11.38145 2.9548,15.10231 2.8453,3.83029 8.5361,3.83029 2.8453,0 10.7248,-1.75099 2.4076,-0.54719 6.4568,-3.61142 h 0.9849 q 0.9849,0 1.5321,0.65662 0.6567,0.54718 0.6567,1.53212 l -0.1095,0.76606 q -4.7058,5.14354 -10.8342,7.55115 -6.0191,2.29818 -16.0873,2.29818 -7.1134,0 -11.8192,-3.28311 -4.5963,-3.28311 -5.9096,-7.77003 -1.3132,-4.48692 -1.3132,-19.58923 l 0.4377,-24.62332 -0.1094,-11.8192 v -4.37748 q 0,-3.06424 -0.2189,-6.12847 l -1.8604,-0.10944 -8.9739,0.32831 -0.8755,0.10944 q -1.2038,0 -1.8604,-0.54719 -0.5472,-0.54718 -0.5472,-1.31324 0,-1.31325 0.7661,-2.0793 0.8755,-0.8755 5.0341,-2.62649 2.8454,-1.20381 6.5662,-4.48692 3.8303,-3.39255 6.4568,-7.44172 1.3132,-2.18874 3.7209,-8.31721 1.751,-4.48692 2.6264,-6.34735 z"
         id="path932" />
      <path
         d="m 1955.6142,200.63535 -43.8842,0.32831 h -8.3172 q -5.0341,0 -10.2871,0.43775 -0.9849,3.28311 -0.9849,4.48692 l 0.1094,1.09437 v 1.09437 l -0.1094,5.36241 q 0,6.67566 4.1586,16.41555 4.268,9.63046 12.038,14.774 7.8795,5.0341 19.5893,5.36241 6.2379,-0.32831 9.9587,-1.53212 3.7209,-1.2038 10.506,-5.58128 l 7.8795,-6.45679 0.6566,4.37748 q 0,0.76606 -0.1095,1.64156 -4.9246,6.23791 -12.4758,10.9437 -7.5511,4.70579 -15.3212,6.89453 -3.7208,0.98493 -12.2569,0.98493 -7.77,0 -15.3212,-3.17367 -11.1626,-4.81523 -17.6193,-15.43062 -6.3474,-10.72483 -6.3474,-25.93657 0,-4.81523 1.751,-12.36638 1.8604,-7.55116 6.5662,-16.08724 3.1737,-5.80016 7.7701,-9.52102 6.5662,-5.25298 11.4908,-7.33228 7.1134,-2.9548 16.525,-2.9548 10.1777,0 16.6345,3.72086 8.7549,4.92466 13.023,12.69469 4.3774,7.77003 4.3774,14.22681 z m -61.0658,-3.93973 h 5.1435 q 5.5813,0 33.2689,-1.751 4.3775,-0.21887 5.3624,-0.87549 1.9699,-2.0793 1.9699,-3.72086 0,-3.39255 -2.1888,-7.66059 -2.1887,-4.37748 -6.7851,-6.67566 -4.4869,-2.40761 -10.5059,-2.40761 -12.6947,0 -20.3553,9.52102 -5.9096,7.22284 -5.9096,13.57019 z"
         id="path934" />
      <path
         d="m 1966.7768,258.7464 -0.4378,-1.42268 q 0,-0.76606 0.985,-2.29818 l 6.4567,-1.31324 9.0833,-1.64156 q 1.0944,-0.54718 1.5321,-1.53211 0.6567,-1.42269 0.6567,-8.42665 0,-37.20859 -0.4378,-42.89931 -0.4377,-5.80016 -1.9699,-7.33228 -1.5321,-1.53212 -7.8794,-2.40762 -3.7209,-0.54718 -5.9096,-1.42268 l 0.4377,-3.28311 q 11.4909,-4.70579 15.4306,-8.09834 5.4719,-4.92466 9.3022,-12.91356 l 3.7208,0.10943 q 0.6567,5.47185 0.6567,24.29502 l -0.1095,1.86043 q 0,0.65662 0.2189,2.0793 4.1586,-7.55115 10.3965,-13.8985 l 2.5171,-2.51705 q 1.5321,-1.75099 2.9548,-2.73592 7.6606,-4.59636 11.3814,-4.59636 4.8153,0 7.8795,3.28311 3.0642,3.17367 3.0642,7.87947 0,3.72085 -2.1887,5.80016 -2.9548,2.73592 -6.7851,2.73592 -1.751,0 -6.8945,-1.86043 -5.1436,-1.86043 -6.7851,-1.86043 -3.0643,0 -4.2681,0.98494 -3.0642,2.40761 -7.4417,9.84933 -3.3925,5.58129 -3.3925,10.28708 l 0.5471,18.0571 0.2189,21.66853 q 0.3283,3.72086 0.8755,4.81523 0.4378,0.76606 2.1888,1.86043 11.8191,0.98493 14.0079,1.42268 1.5321,0.10944 2.2982,0.21888 4.7058,0.10943 6.5662,1.31324 0.9849,0.54718 0.9849,1.64155 0,0.65663 -0.8755,1.751 l -12.1475,-0.10944 -4.5963,-0.10944 -6.6757,0.10944 h -11.1626 l -6.019,0.32831 z"
         id="path936" />
      <path
         d="m 2052.5754,123.92 q 0,-3.61142 2.7359,-6.23791 2.8454,-2.62648 6.7851,-2.62648 4.0492,0 7.1134,2.9548 3.0643,2.95479 3.0643,6.34734 0,3.39255 -3.0643,6.45679 -3.0642,2.9548 -7.1134,2.9548 -4.0492,0 -6.7851,-2.73593 -2.7359,-2.73593 -2.7359,-7.11341 z m -9.1927,56.68838 0.1094,-3.17368 q 7.1134,-2.0793 7.6606,-2.40761 3.9397,-1.75099 8.2078,-5.36242 4.3775,-3.61142 7.3323,-8.09833 1.3132,-0.21888 2.0793,-0.21888 l 1.3132,0.10944 q 0.4378,5.25298 0.4378,7.66059 0,0.54718 -0.2189,4.92467 v 5.80016 l 0.1094,31.51786 -0.3283,33.37828 q -0.1094,4.04917 1.3133,5.69073 1.4226,1.53212 8.4266,3.50198 4.3775,1.20381 6.5662,2.07931 0.3283,0.76606 0.3283,1.31324 0,0.65662 -0.5471,1.64156 -4.2681,-0.10944 -10.9437,-0.54719 -9.0833,-0.76606 -12.0381,-0.76606 -1.4227,0 -17.5099,0.54719 -3.2831,0.10943 -6.3474,0.54718 -0.5472,0 -1.751,-0.32831 -0.5472,-0.76606 -0.5472,-1.31324 0,-1.53212 2.0793,-2.40762 0.4378,-0.21887 11.1626,-2.51705 3.502,-0.65662 4.5964,-2.18874 1.8604,-2.29818 1.8604,-7.33228 0.2189,-8.42665 0.2189,-46.18242 0,-7.55115 -0.6566,-9.41158 -0.5472,-1.31324 -2.9548,-2.9548 -2.2982,-1.75099 -9.9588,-3.50198 z"
         id="path938" />
      <path
         d="m 2177.3336,243.53466 q 0.6566,1.42268 0.6566,2.0793 0,1.64156 -2.6265,5.80016 -3.3926,5.47185 -7.5512,7.9889 -2.6265,1.64156 -7.2228,1.64156 -7.8795,0 -11.8192,-4.81523 -2.4076,-2.84536 -3.3926,-10.17764 l -12.2569,8.53609 q -6.4568,3.72085 -9.8493,4.70579 -5.4719,1.42268 -13.1325,1.42268 -5.5813,0 -8.8644,-3.28311 -3.1736,-3.39255 -3.1736,-8.64553 0,-7.55115 9.1927,-18.0571 9.3021,-10.50596 25.1705,-17.18161 11.1626,-4.7058 13.6796,-6.01904 0.2189,-3.61142 0.2189,-7.87946 0,-13.8985 -3.9397,-18.82317 -3.8303,-4.92467 -11.0532,-4.92467 -7.5511,0 -14.1174,5.9096 -4.0491,3.72086 -6.1284,14.00794 -0.6567,2.84536 -2.5171,6.12847 -4.7058,3.06424 -7.5511,3.06424 -2.4077,0 -4.3775,-1.42268 -1.0944,-0.76606 -1.0944,-1.75099 0,-2.84537 6.019,-12.80413 6.1285,-10.06821 15.3212,-14.99287 9.3022,-5.03411 16.1967,-5.03411 9.4116,0 14.0079,1.75099 4.5964,1.64156 8.0984,5.9096 3.502,4.26805 4.268,9.30215 0.4378,2.40761 0.4378,17.18161 l -0.3283,17.40048 0.1094,12.6947 q 0,2.51705 -0.1094,4.26804 -0.1095,3.17368 -0.1095,4.70579 0,3.61142 2.0793,5.80016 2.0793,2.18874 4.9247,2.18874 4.1586,0 7.1134,-4.1586 l 1.3132,-1.75099 q 0.5472,-0.32831 2.4077,-0.76606 z m -32.1745,-3.17368 q 0.766,-13.8985 0.766,-19.58922 0,-2.9548 -0.3283,-7.9889 -7.3323,2.62649 -15.54,7.9889 -8.2078,5.36241 -13.023,12.36638 -3.502,5.0341 -3.502,9.52102 0,4.26804 2.8453,7.11341 2.9548,2.84536 7.3323,2.84536 3.3926,0 8.2078,-2.40762 6.3473,-3.17367 13.2419,-9.84933 z"
         id="path940" />
      <path
         d="m 2293.1179,182.68768 q 0,-4.81523 3.502,-8.42665 3.6115,-3.61142 8.3172,-3.61142 4.5964,0 7.7701,3.39255 3.1736,3.39254 3.1736,8.53608 0,5.25298 -3.3925,8.75496 -3.2831,3.39255 -7.9889,3.39255 -4.5964,0 -7.9889,-3.50198 -3.3926,-3.61143 -3.3926,-8.53609 z"
         id="path942" />
      <path
         d="m 2364.0332,117.35378 h 5.253 q 2.8454,0 12.4758,0.32831 14.8835,0.65663 24.7328,0.65663 l 12.8041,-0.21888 q 2.736,0 5.253,0.43775 0.7661,0.8755 0.7661,1.86043 v 1.20381 l -2.736,1.31324 h -1.2038 l -6.1284,0.10944 -3.1737,-0.10944 q -3.7209,0 -6.019,1.64156 -1.751,1.2038 -1.751,2.51705 0,1.42268 1.5321,3.61142 0.5472,0.87549 1.751,2.62649 2.1887,3.72086 5.8001,8.64552 5.1436,7.22284 10.9437,17.07217 2.2982,3.93974 4.8153,7.55116 l 16.6344,25.17051 q 1.6415,-2.0793 4.4869,-6.12847 l 15.7589,-22.65346 18.1666,-27.24982 q 2.4076,-3.72086 2.8453,-5.47185 0.2189,-0.8755 0.2189,-1.86043 0,-2.29818 -2.0793,-3.72086 -3.3925,-2.29817 -14.6645,-3.39254 -0.7661,-0.10944 -2.0793,-0.32832 -0.7661,-1.31324 -0.7661,-2.18874 0,-0.65662 0.1094,-1.42268 l 5.6908,-0.10943 20.5741,0.54718 16.525,-0.32831 q 0.6566,0 4.5964,0.10944 l -0.3284,3.83029 q -0.766,0.21888 -2.4076,0.32831 l -2.6265,0.32831 q -0.6566,0.10944 -2.0793,0.21888 -2.2981,0.87549 -3.6114,1.86043 -16.0872,16.96273 -27.3592,32.06504 -11.272,15.10231 -19.0421,27.46869 -2.517,4.04917 -4.0491,6.01904 -2.8454,3.72086 -3.3926,5.47185 -1.2038,4.26804 -1.2038,12.91357 0,34.03491 1.2038,40.16338 0.6566,3.06424 1.751,3.72086 2.8454,1.42268 22.6535,3.39254 v 1.31325 q 0,1.31324 -0.7661,3.17367 l -28.0159,-1.20381 -18.7137,0.98494 h -15.3212 q -2.1887,0 -4.8152,-0.10944 -0.4378,-1.20381 -0.4378,-1.75099 0,-0.54719 0.3284,-1.53212 0.766,-0.65662 1.5321,-0.76606 l 14.1173,-2.18874 q 7.3323,-2.40761 8.2078,-3.28311 1.3133,-1.31324 1.6416,-4.04917 0.1094,-1.96986 0.1094,-30.42349 0,-10.61539 -0.766,-12.91356 -0.6567,-2.40762 -4.5964,-8.31722 l -14.3362,-21.77796 -24.4045,-35.56703 q -6.3473,-9.30215 -11.0531,-12.47582 -2.0793,-1.42268 -10.3966,-2.18874 -0.8755,0 -2.6264,-0.21888 z"
         id="path944" />
      <path
         d="m 2505.8635,214.42441 q 0,-7.44171 3.0642,-15.86836 3.1737,-8.53609 9.521,-15.21175 6.3474,-6.78509 13.4608,-10.0682 9.9588,-4.59636 24.295,-4.59636 20.4647,0 34.1443,14.00794 13.7891,14.00794 13.7891,33.7066 0,17.50992 -14.4457,31.29898 -14.3362,13.67963 -36.3331,13.67963 -13.5702,0 -25.6082,-7.11341 -8.9739,-5.36241 -15.4306,-15.86836 -6.4568,-10.50596 -6.4568,-23.96671 z m 48.3711,42.68044 q 8.3172,0 15.9778,-4.48692 7.7701,-4.48692 12.3664,-14.33625 4.5964,-9.95877 4.5964,-22.98177 0,-8.53609 -3.6114,-19.8081 -3.502,-11.27201 -10.9437,-16.8533 -7.3323,-5.69072 -17.2911,-5.69072 -7.2228,0 -14.774,3.39254 -7.4417,3.39255 -12.6947,13.02301 -5.1435,9.63045 -5.1435,27.35925 0,19.91754 8.9738,30.20461 9.0833,10.17765 22.544,10.17765 z"
         id="path946" />
      <path
         d="m 2641.7841,265.64093 q -1.3132,-0.65662 -8.4266,-3.61142 -8.3172,-5.36241 -10.506,-7.9889 -2.1887,-2.62649 -2.1887,-5.80016 0,-2.84536 1.6416,-4.59636 2.4076,-2.51705 9.521,-4.81522 7.1134,-2.29818 11.7097,-4.48692 -1.4227,-0.98493 -4.4869,-2.84536 -16.3061,-10.06821 -16.3061,-27.90644 0,-14.66456 10.2871,-24.73277 10.3965,-10.17764 26.5932,-10.17764 7.3323,0 13.4607,2.0793 3.502,1.09437 10.3965,5.47186 4.3775,2.73592 5.1436,3.06423 1.751,0.54719 3.9397,0.54719 1.8604,0 8.9738,-0.8755 7.2229,-0.98493 8.5361,-0.98493 2.5171,0 4.1586,0.98493 1.3133,2.18874 1.3133,7.33228 0,1.75099 -0.9849,2.62649 -0.8755,0.87549 -2.6265,0.87549 -3.0643,0 -10.1777,-1.86042 -7.0039,-1.96987 -8.5361,-1.96987 -0.5472,0 -2.0793,0.21887 4.7058,9.41159 4.7058,17.18161 0,7.77003 -4.9246,16.08724 -4.9247,8.31722 -13.5702,12.6947 -8.6456,4.37748 -17.51,4.37748 -0.6566,0 -3.7208,-0.10944 -10.0682,0 -18.4949,5.0341 -4.0491,2.51706 -4.0491,4.7058 0,2.29817 3.9397,4.48691 10.3965,5.58129 39.3973,6.45679 12.5853,0.43774 19.5892,3.61142 7.004,3.17367 10.506,9.30214 3.6114,6.23791 3.6114,12.80413 0,8.8644 -6.019,16.41556 -6.0191,7.55115 -18.276,12.25694 -12.2569,4.70579 -28.1253,4.70579 -17.5099,0 -27.031,-4.26804 -9.521,-4.26804 -13.5701,-9.30215 -3.9398,-5.0341 -3.9398,-9.95876 0,-4.26805 4.3775,-10.72483 4.3775,-6.34735 18.1666,-13.35132 4.0491,-2.0793 5.5812,-2.9548 z m -4.3774,-62.48853 q 0,9.84933 2.9548,16.52499 2.9548,6.56622 8.0983,9.84933 5.1435,3.17367 10.3965,3.17367 9.521,0 15.7589,-7.22284 6.3474,-7.33228 6.3474,-22.21571 0,-14.99287 -6.5662,-22.7629 -6.5663,-7.87947 -15.8684,-7.87947 -10.3965,0 -15.7589,7.44172 -5.3624,7.44172 -5.3624,23.09121 z m -3.6115,101.33867 q 9.9588,7.66059 25.1705,7.66059 10.8343,0 21.5591,-3.50198 10.8343,-3.39255 15.759,-9.84933 5.0341,-6.34735 5.0341,-12.03807 0,-3.50199 -1.751,-7.00397 -1.751,-3.39255 -4.8152,-5.69073 -2.9548,-2.18874 -7.8795,-3.50198 -3.502,-0.98493 -9.9588,-1.42268 -18.3854,-1.42268 -22.544,-1.42268 -11.7098,0 -20.9025,7.87946 -7.1134,6.12847 -7.1134,14.66456 0,7.87947 7.4417,14.22681 z"
         id="path948" />
      <path
         d="m 2716.2013,172.51004 h 8.2078 l 3.6114,0.21887 2.8454,-0.21887 q 11.272,0 14.0079,0.21887 l 0.1095,2.0793 q 0,15.43062 -0.4378,29.87631 -0.3283,8.53609 -0.3283,9.73989 0,19.26092 1.2038,24.07614 1.3133,4.81523 5.9096,7.77003 4.7058,2.84536 11.272,2.84536 7.9889,0 15.2118,-3.28311 7.3322,-3.39254 12.4758,-8.20777 0.5472,-4.15861 0.5472,-9.19271 0,-16.30611 0.3283,-21.99684 0.1094,-3.39255 0.1094,-5.9096 0,-17.72879 -1.751,-20.02697 -1.751,-2.29818 -13.3513,-3.50199 -3.8303,-0.43774 -5.5813,-0.76605 -0.8755,-1.42269 -0.8755,-2.18874 l 0.3283,-1.20381 q 2.8454,-0.32831 5.5813,-0.32831 l 17.4005,0.21887 q 9.3022,-0.21887 9.8493,-0.21887 1.2038,0 2.2982,0.10943 l 0.2189,7.98891 q -0.7661,16.63442 -0.8755,41.14831 l -0.2189,8.8644 0.4378,14.88343 q 0.9849,1.751 1.751,2.07931 1.3132,0.54718 5.3624,0.54718 h 0.9849 q 1.4227,0 8.0983,0.65662 0.1095,1.42268 0.1095,2.07931 v 1.2038 q -14.6646,3.17368 -23.7478,6.34735 -3.6115,1.20381 -6.1285,1.75099 -0.5472,-3.83029 -0.5472,-4.70579 v -8.8644 q 0,-0.54718 -0.1094,-2.9548 -1.4227,0.98494 -3.2832,2.40762 -8.6455,6.67566 -18.2759,11.27201 -6.4568,3.17367 -12.4759,3.17367 -11.4908,0 -18.7137,-8.53608 -7.3323,-8.53609 -7.3323,-29.11025 0,-1.09437 0.1095,-3.93973 0.4377,-5.25298 0.4377,-7.33228 0,-0.76606 -0.1094,-4.81523 -0.1095,-1.75099 -0.1095,-3.06423 0,-0.98494 0.1095,-4.37749 0.1094,-3.50198 0.1094,-4.92466 0,-1.86043 -0.1094,-3.28311 l -0.2189,-5.80016 0.1094,-3.06424 q 0,-1.75099 -1.7509,-3.17367 -6.8946,-1.86043 -9.0833,-2.07931 -2.0793,-0.32831 -3.7209,-0.98493 z"
         id="path950" />
      <path
         d="m 2826.8422,258.7464 -0.4377,-1.42268 q 0,-0.76606 0.9849,-2.29818 l 6.4568,-1.31324 9.0832,-1.64156 q 1.0944,-0.54718 1.5322,-1.53211 0.6566,-1.42269 0.6566,-8.42665 0,-37.20859 -0.4378,-42.89931 -0.4377,-5.80016 -1.9698,-7.33228 -1.5321,-1.53212 -7.8795,-2.40762 -3.7209,-0.54718 -5.9096,-1.42268 l 0.4378,-3.28311 q 11.4908,-4.70579 15.4306,-8.09834 5.4718,-4.92466 9.3021,-12.91356 l 3.7209,0.10943 q 0.6566,5.47185 0.6566,24.29502 l -0.1094,1.86043 q 0,0.65662 0.2188,2.0793 4.1586,-7.55115 10.3966,-13.8985 l 2.517,-2.51705 q 1.5321,-1.75099 2.9548,-2.73592 7.6606,-4.59636 11.3815,-4.59636 4.8152,0 7.8794,3.28311 3.0643,3.17367 3.0643,7.87947 0,3.72085 -2.1888,5.80016 -2.9548,2.73592 -6.7851,2.73592 -1.751,0 -6.8945,-1.86043 -5.1436,-1.86043 -6.7851,-1.86043 -3.0642,0 -4.2681,0.98494 -3.0642,2.40761 -7.4417,9.84933 -3.3925,5.58129 -3.3925,10.28708 l 0.5472,18.0571 0.2188,21.66853 q 0.3284,3.72086 0.8755,4.81523 0.4378,0.76606 2.1888,1.86043 11.8192,0.98493 14.0079,1.42268 1.5321,0.10944 2.2982,0.21888 4.7058,0.10943 6.5662,1.31324 0.9849,0.54718 0.9849,1.64155 0,0.65663 -0.8754,1.751 l -12.1476,-0.10944 -4.5963,-0.10944 -6.6757,0.10944 h -11.1625 l -6.0191,0.32831 z"
         id="path952" />
      <path
         d="m 2932.8867,150.29432 3.3925,0.10944 0.4378,10.39652 -0.2189,13.46075 q 2.0793,0.10944 2.6265,0.10944 2.8454,0 10.8343,-0.43775 5.1435,-0.32831 9.8493,-0.32831 2.1887,0 6.5662,0.10943 0.2189,2.18874 0.2189,3.50199 0,1.42268 -0.6566,4.48692 h -1.8605 l -16.9627,0.54718 -8.4266,0.21888 -1.9699,0.21887 q -0.8755,2.73592 -0.8755,6.34735 l 0.3283,16.41555 -0.2189,28.89137 q 0,11.38145 2.9548,15.10231 2.8454,3.83029 8.5361,3.83029 2.8454,0 10.7248,-1.75099 2.4077,-0.54719 6.4568,-3.61142 h 0.985 q 0.9849,0 1.5321,0.65662 0.6566,0.54718 0.6566,1.53212 l -0.1094,0.76606 q -4.7058,5.14354 -10.8343,7.55115 -6.019,2.29818 -16.0872,2.29818 -7.1134,0 -11.8192,-3.28311 -4.5964,-3.28311 -5.9096,-7.77003 -1.3133,-4.48692 -1.3133,-19.58923 l 0.4378,-24.62332 -0.1095,-11.8192 v -4.37748 q 0,-3.06424 -0.2188,-6.12847 l -1.8605,-0.10944 -8.9738,0.32831 -0.8755,0.10944 q -1.2038,0 -1.8604,-0.54719 -0.5472,-0.54718 -0.5472,-1.31324 0,-1.31325 0.766,-2.0793 0.8755,-0.8755 5.0341,-2.62649 2.8454,-1.20381 6.5663,-4.48692 3.8303,-3.39255 6.4567,-7.44172 1.3133,-2.18874 3.7209,-8.31721 1.751,-4.48692 2.6265,-6.34735 z"
         id="path954" />
      <path
         d="m 3053.5958,200.63535 -43.8842,0.32831 h -8.3172 q -5.0342,0 -10.2871,0.43775 -0.985,3.28311 -0.985,4.48692 l 0.1095,1.09437 v 1.09437 l -0.1095,5.36241 q 0,6.67566 4.1586,16.41555 4.2681,9.63046 12.0381,14.774 7.8795,5.0341 19.5892,5.36241 6.238,-0.32831 9.9588,-1.53212 3.7209,-1.2038 10.506,-5.58128 l 7.8794,-6.45679 0.6566,4.37748 q 0,0.76606 -0.1094,1.64156 -4.9247,6.23791 -12.4758,10.9437 -7.5512,4.70579 -15.3212,6.89453 -3.7208,0.98493 -12.2569,0.98493 -7.7701,0 -15.3212,-3.17367 -11.1626,-4.81523 -17.6194,-15.43062 -6.3473,-10.72483 -6.3473,-25.93657 0,-4.81523 1.751,-12.36638 1.8604,-7.55116 6.5662,-16.08724 3.1737,-5.80016 7.77,-9.52102 6.5662,-5.25298 11.4909,-7.33228 7.1134,-2.9548 16.525,-2.9548 10.1776,0 16.6344,3.72086 8.755,4.92466 13.023,12.69469 4.3775,7.77003 4.3775,14.22681 z m -61.0658,-3.93973 h 5.1435 q 5.5813,0 33.2688,-1.751 4.3775,-0.21887 5.3625,-0.87549 1.9698,-2.0793 1.9698,-3.72086 0,-3.39255 -2.1887,-7.66059 -2.1888,-4.37748 -6.7851,-6.67566 -4.4869,-2.40761 -10.506,-2.40761 -12.6947,0 -20.3552,9.52102 -5.9096,7.22284 -5.9096,13.57019 z"
         id="path956" />
      <path
         d="m 3064.7582,258.7464 -0.4377,-1.42268 q 0,-0.76606 0.9849,-2.29818 l 6.4568,-1.31324 9.0833,-1.64156 q 1.0943,-0.54718 1.5321,-1.53211 0.6566,-1.42269 0.6566,-8.42665 0,-37.20859 -0.4377,-42.89931 -0.4378,-5.80016 -1.9699,-7.33228 -1.5321,-1.53212 -7.8795,-2.40762 -3.7208,-0.54718 -5.9096,-1.42268 l 0.4378,-3.28311 q 11.4909,-4.70579 15.4306,-8.09834 5.4718,-4.92466 9.3021,-12.91356 l 3.7209,0.10943 q 0.6566,5.47185 0.6566,24.29502 l -0.1094,1.86043 q 0,0.65662 0.2189,2.0793 4.1586,-7.55115 10.3965,-13.8985 l 2.517,-2.51705 q 1.5321,-1.75099 2.9548,-2.73592 7.6606,-4.59636 11.3815,-4.59636 4.8152,0 7.8794,3.28311 3.0643,3.17367 3.0643,7.87947 0,3.72085 -2.1888,5.80016 -2.9548,2.73592 -6.7851,2.73592 -1.751,0 -6.8945,-1.86043 -5.1435,-1.86043 -6.7851,-1.86043 -3.0642,0 -4.268,0.98494 -3.0643,2.40761 -7.4418,9.84933 -3.3925,5.58129 -3.3925,10.28708 l 0.5472,18.0571 0.2189,21.66853 q 0.3283,3.72086 0.8755,4.81523 0.4377,0.76606 2.1887,1.86043 11.8192,0.98493 14.0079,1.42268 1.5322,0.10944 2.2982,0.21888 4.7058,0.10943 6.5662,1.31324 0.985,0.54718 0.985,1.64155 0,0.65663 -0.8755,1.751 l -12.1475,-0.10944 -4.5964,-0.10944 -6.6757,0.10944 h -11.1625 l -6.0191,0.32831 z"
         id="path958" />
      <path
         d="m 3150.557,123.92 q 0,-3.61142 2.7359,-6.23791 2.8453,-2.62648 6.7851,-2.62648 4.0492,0 7.1134,2.9548 3.0642,2.95479 3.0642,6.34734 0,3.39255 -3.0642,6.45679 -3.0642,2.9548 -7.1134,2.9548 -4.0492,0 -6.7851,-2.73593 -2.7359,-2.73593 -2.7359,-7.11341 z m -9.1927,56.68838 0.1094,-3.17368 q 7.1134,-2.0793 7.6606,-2.40761 3.9397,-1.75099 8.2078,-5.36242 4.3774,-3.61142 7.3322,-8.09833 1.3133,-0.21888 2.0793,-0.21888 l 1.3133,0.10944 q 0.4377,5.25298 0.4377,7.66059 0,0.54718 -0.2188,4.92467 v 5.80016 l 0.1094,31.51786 -0.3283,33.37828 q -0.1095,4.04917 1.3132,5.69073 1.4227,1.53212 8.4267,3.50198 4.3775,1.20381 6.5662,2.07931 0.3283,0.76606 0.3283,1.31324 0,0.65662 -0.5472,1.64156 -4.268,-0.10944 -10.9437,-0.54719 -9.0832,-0.76606 -12.038,-0.76606 -1.4227,0 -17.51,0.54719 -3.2831,0.10943 -6.3473,0.54718 -0.5472,0 -1.751,-0.32831 -0.5472,-0.76606 -0.5472,-1.31324 0,-1.53212 2.0793,-2.40762 0.4378,-0.21887 11.1626,-2.51705 3.502,-0.65662 4.5963,-2.18874 1.8605,-2.29818 1.8605,-7.33228 0.2188,-8.42665 0.2188,-46.18242 0,-7.55115 -0.6566,-9.41158 -0.5472,-1.31324 -2.9548,-2.9548 -2.2982,-1.75099 -9.9587,-3.50198 z"
         id="path960" />
      <path
         d="m 3275.3151,243.53466 q 0.6566,1.42268 0.6566,2.0793 0,1.64156 -2.6264,5.80016 -3.3926,5.47185 -7.5512,7.9889 -2.6265,1.64156 -7.2228,1.64156 -7.8795,0 -11.8192,-4.81523 -2.4076,-2.84536 -3.3926,-10.17764 l -12.2569,8.53609 q -6.4568,3.72085 -9.8494,4.70579 -5.4718,1.42268 -13.1324,1.42268 -5.5813,0 -8.8644,-3.28311 -3.1737,-3.39255 -3.1737,-8.64553 0,-7.55115 9.1927,-18.0571 9.3022,-10.50596 25.1705,-17.18161 11.1626,-4.7058 13.6797,-6.01904 0.2189,-3.61142 0.2189,-7.87946 0,-13.8985 -3.9398,-18.82317 -3.8303,-4.92467 -11.0531,-4.92467 -7.5512,0 -14.1174,5.9096 -4.0492,3.72086 -6.1285,14.00794 -0.6566,2.84536 -2.517,6.12847 -4.7058,3.06424 -7.5512,3.06424 -2.4076,0 -4.3775,-1.42268 -1.0943,-0.76606 -1.0943,-1.75099 0,-2.84537 6.019,-12.80413 6.1285,-10.06821 15.3212,-14.99287 9.3021,-5.03411 16.1967,-5.03411 9.4116,0 14.0079,1.75099 4.5964,1.64156 8.0983,5.9096 3.502,4.26805 4.2681,9.30215 0.4377,2.40761 0.4377,17.18161 l -0.3283,17.40048 0.1095,12.6947 q 0,2.51705 -0.1095,4.26804 -0.1094,3.17368 -0.1094,4.70579 0,3.61142 2.0793,5.80016 2.0793,2.18874 4.9247,2.18874 4.1586,0 7.1134,-4.1586 l 1.3132,-1.75099 q 0.5472,-0.32831 2.4076,-0.76606 z m -32.1745,-3.17368 q 0.7661,-13.8985 0.7661,-19.58922 0,-2.9548 -0.3283,-7.9889 -7.3323,2.62649 -15.5401,7.9889 -8.2077,5.36241 -13.023,12.36638 -3.502,5.0341 -3.502,9.52102 0,4.26804 2.8454,7.11341 2.9548,2.84536 7.3323,2.84536 3.3925,0 8.2078,-2.40762 6.3473,-3.17367 13.2418,-9.84933 z"
         id="path962" />
    </g>
  </g>
  <metadata
     id="metadata237">
    <rdf:RDF>
      <cc:Work
         rdf:about="">
        <dc:title>Tavola disegno 1 copia 8</dc:title>
      </cc:Work>
    </rdf:RDF>
  </metadata>
</svg>
