<?xml version="1.0" encoding="UTF-8" standalone="no"?>
<svg
   viewBox="0 0 3700.0001 1736"
   version="1.1"
   id="svg153"
   sodipodi:docname="Tavola disegno 1 copia 8.svg"
   width="3700"
   height="1736"
   inkscape:version="1.1 (c4e8f9e, 2021-05-24)"
   xmlns:inkscape="http://www.inkscape.org/namespaces/inkscape"
   xmlns:sodipodi="http://sodipodi.sourceforge.net/DTD/sodipodi-0.dtd"
   xmlns="http://www.w3.org/2000/svg"
   xmlns:svg="http://www.w3.org/2000/svg"
   xmlns:rdf="http://www.w3.org/1999/02/22-rdf-syntax-ns#"
   xmlns:cc="http://creativecommons.org/ns#"
   xmlns:dc="http://purl.org/dc/elements/1.1/">
  <sodipodi:namedview
     id="namedview155"
     pagecolor="#ffffff"
     bordercolor="#666666"
     borderopacity="1.0"
     inkscape:pageshadow="2"
     inkscape:pageopacity="0.0"
     inkscape:pagecheckerboard="0"
     showgrid="false"
     inkscape:zoom="0.3153214"
     inkscape:cx="1845.7358"
     inkscape:cy="-188.69636"
     inkscape:window-width="1460"
     inkscape:window-height="1003"
     inkscape:window-x="0"
     inkscape:window-y="23"
     inkscape:window-maximized="0"
     inkscape:current-layer="svg153" />
  <defs
     id="defs11">
    <style
       id="style9">.cls-1{fill:none;stroke:#221f20;stroke-width:0px;}.cls-1,.cls-4,.cls-6{stroke-miterlimit:10;}.cls-2{fill:#8d2825;}.cls-3{fill:#008a4f;}.cls-4,.cls-6,.cls-7{fill:#fff;}.cls-4{stroke:#8d2825;}.cls-5{fill:#db4236;}.cls-6{stroke:#fff;}</style>
  </defs>
  <title
     id="title13">Tavola disegno 1 copia 8</title>
  <g
     id="Livello_2"
     data-name="Livello 2"
     transform="translate(-9.9200001,-2114.04)" />
  <g
     id="Livello_1"
     data-name="Livello 1"
     transform="translate(-9.9200001,-2114.04)">
    <rect
       class="cls-2"
       x="9.9200001"
       y="2114.04"
       width="3700"
       height="1736"
       id="rect18" />
    <path
       class="cls-3"
       d="m 2622.6,3240.32 c -75.82,87.55 -233.63,232.53 -302.95,259.28 81.55,-5 257,-149.86 351.84,-259.28 z"
       id="path86" />
    <path
       class="cls-3"
       d="m 2099.22,3328.22 h -97.74 c 74.54,164.56 187.77,221.68 318.17,171.38 -89.3,5.4 -166.15,-51.6 -220.43,-171.38 z"
       id="path88" />
    <path
       class="cls-6"
       d="m 2196.52,3328.15 h -97.3 c 74.16,164.55 186.85,221.65 316.7,171.38 -88.98,5.47 -165.39,-51.59 -219.4,-171.38 z"
       id="path90" />
    <path
       class="cls-6"
       d="m 2718.1,3240.32 c -75.59,87.52 -233.08,232.49 -302.18,259.21 81.21,-4.92 256.4,-149.87 350.84,-259.21 z"
       id="path92" />
    <path
       class="cls-5"
       d="m 2293.86,3328.22 h -97.34 c 74.22,164.56 186.89,221.68 316.76,171.4 -88.95,5.38 -165.45,-51.62 -219.42,-171.4 z"
       id="path94" />
    <path
       class="cls-5"
       d="m 2815.41,3240.38 c -75.54,87.51 -233.07,232.5 -302.13,259.24 81.23,-5 256.39,-149.88 350.83,-259.24 z"
       id="path96" />
    <path
       class="cls-7"
       d="m 371.09,2609.52 a 19.22,19.22 0 0 1 -7.78,16 27.62,27.62 0 0 1 -17.08,6 28.31,28.31 0 0 1 -17.73,-6 20.21,20.21 0 0 1 0,-32 27.11,27.11 0 0 1 17.05,-6.07 28.47,28.47 0 0 1 17.76,6.07 19.1,19.1 0 0 1 7.78,16 z"
       id="path98" />
    <path
       class="cls-7"
       d="m 374.64,3036.38 c -16.59,0 -28.55,-3.7 -35.88,-11 -7.33,-7.3 -11,-17.2 -11,-29.56 V 2667.77 H 364 v 334.52 a 34,34 0 0 0 3.91,15.93 c 2.61,5 6.45,7.45 11.67,7.45 a 12.59,12.59 0 0 0 6.79,-2 c 2.14,-1.36 3.89,-2.58 5.34,-3.7 v 13.54 c -4.28,1.91 -9.94,2.87 -17.07,2.87 z"
       id="path100" />
    <path
       class="cls-7"
       d="m 487.6,3036.38 c -16.57,0 -28.59,-3.7 -35.92,-11 -7.33,-7.3 -11,-17.2 -11,-29.56 v -471.51 h 36.23 v 478 a 33.85,33.85 0 0 0 3.91,15.93 c 2.6,5 6.49,7.45 11.72,7.45 a 13.12,13.12 0 0 0 6.74,-1.76 c 2.13,-1.19 3.87,-2.22 5.3,-3.19 v 12.79 c -4.23,1.89 -9.94,2.85 -16.98,2.85 z"
       id="path102" />
    <path
       class="cls-7"
       d="m 1009.2,2960.74 a 205.81,205.81 0 0 1 -46.54,43.3 216.23,216.23 0 0 1 -59.26,28.06 q -32.68,9.93 -71,9.94 -56.85,0 -100.52,-20.95 -43.67,-20.95 -73.5,-56.46 -29.89,-35.49 -45.11,-83.47 -15.22,-47.98 -15.27,-101.9 0,-54 15.28,-101.94 15.28,-47.94 45.11,-83.45 29.79,-35.48 73.5,-56.46 43.71,-20.98 100.52,-20.94 38.33,0 71,10 a 216.4,216.4 0 0 1 59.26,28 206.34,206.34 0 0 1 46.54,43.37 256.16,256.16 0 0 1 33.37,55.7 h -33.38 a 232.29,232.29 0 0 0 -27,-50.74 186.55,186.55 0 0 0 -38.35,-40.14 166.49,166.49 0 0 0 -49.74,-26.23 q -27.69,-9.3 -61.76,-9.25 -51.14,0 -88.48,21.27 a 186.76,186.76 0 0 0 -61.74,56.82 q -24.52,35.5 -36.25,81 a 376.74,376.74 0 0 0 0,186.4 q 11.76,45.1 36.25,80.62 a 186.76,186.76 0 0 0 61.74,56.82 q 37.33,21.3 88.48,21.35 34.1,0 61.76,-9.26 a 166.25,166.25 0 0 0 49.74,-26.32 187.17,187.17 0 0 0 38.35,-40.08 230.77,230.77 0 0 0 27,-50.81 h 33.37 a 257.51,257.51 0 0 1 -33.37,55.75 z"
       id="path104" />
    <path
       class="cls-7"
       d="m 1361.46,3034.94 v -37 q -16.32,19.19 -48.64,31.63 -32.32,12.44 -74.21,12.43 -33.4,0 -60,-7.45 -26.6,-7.45 -45.1,-21 -18.48,-13.56 -28.39,-31.42 a 77.33,77.33 0 0 1 -10,-38.48 73.29,73.29 0 0 1 11,-39.21 c 7.37,-11.84 17.81,-22.2 31.25,-31 13.44,-8.8 29.52,-15.7 48,-20.67 18.48,-4.97 38.78,-7.47 61.09,-7.47 q 28.33,0 49.72,-7.47 21.39,-7.47 35.84,-19.79 a 84.81,84.81 0 0 0 22.06,-27.91 75.16,75.16 0 0 0 7.4,-32.56 79,79 0 0 0 -6.75,-31.83 86,86 0 0 0 -19.52,-28 c -8.52,-8.23 -19.27,-14.85 -32.32,-19.73 -13.05,-4.88 -28,-7.46 -45.07,-7.46 -17.07,0 -32,2.44 -44.73,7.46 -12.73,5.02 -23.62,11.58 -32.36,19.86 a 79.86,79.86 0 0 0 -19.52,28 83.56,83.56 0 0 0 -6.43,32 h -36.2 a 76.59,76.59 0 0 1 10.33,-38.72 c 6.84,-12.09 16.45,-22.46 28.76,-31.27 12.31,-8.81 27,-15.59 44.06,-20.6 17.06,-5.01 35.73,-7.44 56.09,-7.44 20.36,0 39,2.47 56.08,7.44 17.08,4.97 31.85,11.84 44.37,20.6 12.52,8.76 22.28,19.18 29.16,31.27 a 77,77 0 0 1 10.27,38.85 v 277 z m 0,-220.9 c -10.88,12.36 -25.89,22.37 -45.07,30.18 -19.18,7.81 -42.53,11.73 -70,11.73 -19,0 -35.69,2.48 -50.09,7.48 -14.4,5 -26.45,11.6 -35.84,19.87 a 87,87 0 0 0 -21.7,28 75.84,75.84 0 0 0 0,65.35 82.39,82.39 0 0 0 21.7,27.7 c 9.39,8.09 21.4,14.6 35.84,19.53 14.44,4.93 31.14,7.51 50.09,7.51 18.95,0 35.49,-2.54 49.72,-7.51 14.23,-4.97 26.13,-11.44 35.84,-19.53 a 81.56,81.56 0 0 0 22.06,-27.7 75.41,75.41 0 0 0 7.4,-32.67 z"
       id="path106" />
    <path
       class="cls-7"
       d="m 1727.94,3034.94 v -241.47 a 155.55,155.55 0 0 0 -7.07,-47.23 114.75,114.75 0 0 0 -21,-39.08 101.9,101.9 0 0 0 -34.06,-26.61 q -20.25,-10 -46.54,-10 -26.29,0 -46.49,10 a 101.73,101.73 0 0 0 -34.07,26.61 113.13,113.13 0 0 0 -21,39.08 154,154 0 0 0 -7.14,47.23 v 241.47 h -36.2 V 2667 h 36.2 v 67.51 q 14.25,-32.73 44.44,-53.65 30.19,-20.92 75.58,-20.95 32,0 56.87,10.66 a 124.15,124.15 0 0 1 41.87,28.72 122.62,122.62 0 0 1 25.93,42.66 149.62,149.62 0 0 1 8.84,51.49 v 241.47 z"
       id="path108" />
    <path
       class="cls-7"
       d="m 1877.11,2677.69 v 323.78 c 0,8.09 1.27,15.09 3.87,21 2.6,5.91 6.75,8.91 12.43,8.91 4.73,0 8.53,-1.44 11.39,-4.28 v 12.05 c -4.24,1.9 -10,2.85 -17.07,2.85 -16.6,0 -28.51,-3.78 -35.83,-11.4 -7.32,-7.62 -11,-17.49 -11,-29.79 v -323.12 h -38.35 V 2667 h 38.35 v -63.91 l 36.25,-15.63 V 2667 H 1919 v 10.66 z"
       id="path110" />
    <path
       class="cls-7"
       d="m 2211.58,3034.94 v -37 q -16.32,19.19 -48.63,31.63 -32.31,12.44 -74.21,12.43 -33.42,0 -60,-7.45 -26.58,-7.45 -45.11,-21 -18.46,-13.56 -28.38,-31.42 a 77.23,77.23 0 0 1 -10,-38.48 73.59,73.59 0 0 1 11,-39.21 c 7.31,-11.84 17.72,-22.2 31.2,-31 13.48,-8.8 29.47,-15.7 48,-20.67 18.53,-4.97 38.82,-7.47 61.06,-7.47 q 28.45,0 49.74,-7.47 c 14.21,-4.94 26.13,-11.51 35.87,-19.79 a 82.85,82.85 0 0 0 21.93,-27.91 73.75,73.75 0 0 0 7.52,-32.56 79.83,79.83 0 0 0 -6.74,-31.83 87.42,87.42 0 0 0 -19.53,-28 c -8.49,-8.23 -19.29,-14.85 -32.31,-19.73 -13.02,-4.88 -28,-7.46 -45.08,-7.46 -17.08,0 -32,2.44 -44.78,7.46 -12.78,5.02 -23.56,11.58 -32.27,19.86 a 79,79 0 0 0 -19.56,28 83.69,83.69 0 0 0 -6.38,32 h -36.24 a 76.75,76.75 0 0 1 10.28,-38.72 c 6.88,-12.09 16.46,-22.46 28.75,-31.27 12.29,-8.81 27,-15.59 44.11,-20.6 17.11,-5.01 35.69,-7.44 56.09,-7.44 20.4,0 39,2.47 56.1,7.44 17.1,4.97 31.84,11.84 44.4,20.6 12.56,8.76 22.23,19.18 29.11,31.27 a 76.45,76.45 0 0 1 10.29,38.72 v 277 z m 0,-220.9 c -10.88,12.36 -25.92,22.37 -45.08,30.18 -19.16,7.81 -42.44,11.73 -70,11.73 -18.91,0 -35.64,2.48 -50,7.48 -14.36,5 -26.44,11.6 -35.85,19.87 a 87.38,87.38 0 0 0 -21.69,28 74.84,74.84 0 0 0 0,65.35 82.73,82.73 0 0 0 21.69,27.7 c 9.41,8.09 21.41,14.6 35.85,19.53 14.44,4.93 31.13,7.51 50,7.51 18.87,0 35.55,-2.54 49.74,-7.51 14.19,-4.97 26.13,-11.44 35.87,-19.53 a 79.73,79.73 0 0 0 21.93,-27.7 74,74 0 0 0 7.52,-32.67 z"
       id="path112" />
    <path
       class="cls-7"
       d="m 2593.71,3107.39 a 76.89,76.89 0 0 1 -10,38.36 c -6.63,11.77 -16.09,22.35 -28.4,31.56 -12.31,9.21 -27.57,16.47 -45.86,21.72 -18.29,5.25 -38.88,7.76 -62.09,7.76 -23.21,0 -43.78,-2.58 -61.79,-7.76 -18.01,-5.18 -33.25,-12.46 -45.82,-21.72 -12.57,-9.26 -22.05,-19.79 -28.37,-31.56 a 79,79 0 0 1 -9.58,-38.36 h 36.2 a 81.69,81.69 0 0 0 7.07,33.7 83.65,83.65 0 0 0 21,28.43 c 9.24,8.29 20.57,14.8 34.08,19.55 13.51,4.75 29.25,7.06 47.23,7.06 17.54,0 33.1,-2.35 46.86,-7.06 13.76,-4.71 25.32,-11.26 34.82,-19.55 a 81.1,81.1 0 0 0 28.42,-62.13 84.66,84.66 0 0 0 -7.12,-34.11 81.08,81.08 0 0 0 -21.3,-28.77 q -14.25,-12.44 -34.82,-19.5 c -13.76,-4.72 -29.32,-7.1 -46.86,-7.1 q -53.28,0 -82,-11 -28.72,-11 -28.74,-27.35 c 0,-8.09 5.39,-15.16 16.31,-21.31 10.92,-6.15 26.74,-10.65 47.59,-13.5 q -42.6,-14.23 -65.36,-52.54 -22.76,-38.31 -22.72,-85.93 a 174.5,174.5 0 0 1 8.88,-56.12 137.65,137.65 0 0 1 26.3,-46.52 124.22,124.22 0 0 1 42.58,-32 c 16.85,-7.82 35.86,-11.72 57.18,-11.72 H 2576 v 10.66 h -73.89 a 112.7,112.7 0 0 1 34.84,21.3 129.59,129.59 0 0 1 25.19,31.28 146.73,146.73 0 0 1 15.6,39 179.35,179.35 0 0 1 5.35,44.08 176.2,176.2 0 0 1 -8.83,56.1 135.72,135.72 0 0 1 -26.35,46.15 126.27,126.27 0 0 1 -42.63,31.58 q -25.2,11.79 -57.85,11.74 -36.21,0 -55.41,8.16 c -12.78,5.48 -19.16,11.95 -19.16,19.55 0,7.6 6.38,14.09 19.16,19.54 12.78,5.45 31.27,8.15 55.41,8.15 23.21,0 43.86,2.72 62.09,8.12 18.23,5.4 33.56,12.71 45.86,21.71 a 95.17,95.17 0 0 1 28.4,32 79.32,79.32 0 0 1 9.93,38.35 z m -46.89,-301.12 a 192.42,192.42 0 0 0 -6.39,-49.06 150.87,150.87 0 0 0 -18.83,-43.3 103.33,103.33 0 0 0 -31.28,-31.24 q -18.78,-12 -42.94,-12.07 -24.9,0 -43.32,12.07 a 101.23,101.23 0 0 0 -30.51,31.24 156.37,156.37 0 0 0 -18.52,43.3 194.2,194.2 0 0 0 0,98.05 155.73,155.73 0 0 0 18.52,43.28 97.36,97.36 0 0 0 30.51,30.93 q 18.45,11.73 43.32,11.73 24.16,0 42.94,-11.73 a 99.38,99.38 0 0 0 31.28,-30.93 150.26,150.26 0 0 0 18.83,-43.28 192.12,192.12 0 0 0 6.39,-48.99 z"
       id="path114" />
    <path
       class="cls-7"
       d="m 2901.9,3034.94 v -37 q -16.3,19.19 -48.63,31.63 -32.33,12.44 -74.22,12.43 -33.37,0 -60,-7.45 -26.63,-7.45 -45.09,-21 c -12.32,-9 -21.82,-19.54 -28.4,-31.42 a 76.94,76.94 0 0 1 -10,-38.48 73.07,73.07 0 0 1 11.05,-39.21 c 7.32,-11.84 17.71,-22.2 31.22,-31 13.51,-8.8 29.49,-15.7 48,-20.67 18.51,-4.97 38.84,-7.47 61,-7.47 19,0 35.57,-2.51 49.73,-7.47 14.16,-4.96 26.18,-11.51 35.88,-19.79 a 82.87,82.87 0 0 0 22,-27.91 74.79,74.79 0 0 0 7.45,-32.56 79.33,79.33 0 0 0 -6.75,-31.83 86.7,86.7 0 0 0 -19.5,-28 c -8.48,-8.23 -19.3,-14.85 -32.34,-19.73 -13.04,-4.88 -28,-7.46 -45.12,-7.46 -17.12,0 -31.94,2.44 -44.75,7.46 -12.81,5.02 -23.56,11.58 -32.26,19.86 a 78.83,78.83 0 0 0 -19.52,28 83.5,83.5 0 0 0 -6.38,32 H 2659 a 77.08,77.08 0 0 1 10.31,-38.72 c 6.86,-12.09 16.47,-22.46 28.82,-31.27 12.35,-8.81 26.93,-15.59 44,-20.6 17.07,-5.01 35.67,-7.44 56.07,-7.44 20.4,0 39,2.47 56.12,7.44 17.12,4.97 31.89,11.84 44.38,20.6 12.49,8.76 22.28,19.18 29.11,31.27 a 76.16,76.16 0 0 1 10.29,38.72 v 277 z m 0,-220.9 c -10.87,12.36 -25.93,22.37 -45.12,30.18 -19.19,7.81 -42.43,11.73 -70,11.73 q -28.38,0 -50,7.48 -21.62,7.48 -35.86,19.87 a 87.27,87.27 0 0 0 -21.66,28 75.2,75.2 0 0 0 0,65.35 82.64,82.64 0 0 0 21.66,27.7 q 14.2,12.13 35.86,19.53 c 14.46,5 31.13,7.51 50,7.51 18.87,0 35.57,-2.54 49.73,-7.51 14.16,-4.97 26.18,-11.44 35.88,-19.53 a 79.75,79.75 0 0 0 22,-27.7 75,75 0 0 0 7.45,-32.67 z"
       id="path116" />
    <path
       class="cls-7"
       d="m 3061.71,3036.38 c -16.6,0 -28.52,-3.7 -35.85,-11 -7.33,-7.3 -11.05,-17.2 -11.05,-29.56 v -471.51 h 36.24 v 478 a 34.11,34.11 0 0 0 3.93,15.93 c 2.56,5 6.46,7.45 11.66,7.45 a 13.38,13.38 0 0 0 6.82,-1.76 c 2.13,-1.19 3.88,-2.22 5.3,-3.19 v 12.79 c -4.23,1.89 -9.94,2.85 -17.05,2.85 z"
       id="path118" />
    <path
       class="cls-7"
       d="m 3174.64,3036.38 c -16.58,0 -28.54,-3.7 -35.85,-11 -7.31,-7.3 -11,-17.2 -11,-29.56 V 2524.31 H 3164 v 478 a 34.08,34.08 0 0 0 3.9,15.93 c 2.59,5 6.51,7.45 11.73,7.45 a 13.33,13.33 0 0 0 6.78,-1.76 c 2.1,-1.19 3.87,-2.22 5.3,-3.19 v 12.79 c -4.29,1.89 -9.94,2.85 -17.07,2.85 z"
       id="path120" />
    <path
       class="cls-7"
       d="m 3284,2609.52 a 19.19,19.19 0 0 1 -7.81,16 27.34,27.34 0 0 1 -17.06,6 28.44,28.44 0 0 1 -17.72,-6 20.31,20.31 0 0 1 0,-32 27.24,27.24 0 0 1 17.05,-6.07 28.06,28.06 0 0 1 17.73,6.07 19.08,19.08 0 0 1 7.81,16 z m 3.58,426.86 c -16.57,0 -28.53,-3.7 -35.81,-11 -7.28,-7.3 -11.09,-17.2 -11.09,-29.56 v -328.05 h 36.24 v 334.52 a 34.07,34.07 0 0 0 3.89,15.93 c 2.57,5 6.53,7.45 11.75,7.45 a 12.48,12.48 0 0 0 6.74,-2 63.89,63.89 0 0 0 5.29,-3.7 v 13.54 c -4.25,1.91 -9.94,2.87 -17.03,2.87 z"
       id="path122" />
    <path
       class="cls-7"
       d="m 3338.57,2516.49 a 25.810175,25.810175 0 1 1 -0.19,51.62 c -14.68,0 -26.3,-11.28 -26.3,-26 0,-14.33 11.62,-25.66 26.3,-25.66 z m -0.38,4.5 c -11.6,0 -20.44,9.53 -20.44,21.16 0,11.92 8.84,21.31 20.82,21.31 11.46,0.12 20.12,-9.39 20.12,-21.16 0,-11.77 -8.69,-21.3 -20.31,-21.3 z m -4.49,35.36 h -5 v -26.92 a 49.94,49.94 0 0 1 9.41,-0.83 c 4.49,0 6.76,0.83 8.39,2.11 a 7,7 0 0 1 2.7,5.8 c 0,3.25 -2.4,5.32 -5.16,6.28 v 0.34 c 2.26,0.93 3.59,3.1 4.39,6.62 0.77,4 1.41,5.61 2.14,6.6 h -5.22 c -0.8,-1 -1.45,-3.38 -2.27,-6.93 -0.61,-3.09 -2.36,-4.38 -6.11,-4.38 h -3.23 z m 0,-15.19 h 3.4 c 3.58,0 6.9,-1.1 6.9,-4.19 0,-2.56 -1.73,-4.52 -6.46,-4.52 a 16,16 0 0 0 -3.84,0.35 z"
       id="path124" />
    <path
       class="cls-7"
       d="m 1169.32,3179.21 0.9,-0.58 c 5.24,-3.33 9.11,-5.08 11.46,-5.08 a 10.48,10.48 0 0 1 6.83,2 7.1,7.1 0 0 1 2.36,5.71 6.43,6.43 0 0 1 -1.27,4 4.2,4.2 0 0 1 -3.41,1.58 c -1.7,0 -3.39,-1 -4.88,-3.05 -1.49,-2.05 -2.93,-3 -4.21,-3 a 3.78,3.78 0 0 0 -1.88,0.53 21.88,21.88 0 0 0 -2.73,2 23.74,23.74 0 0 1 3.86,8.35 45.06,45.06 0 0 1 1.36,11.54 c 0,8.41 -2.86,16.27 -8.54,23.68 -5.68,7.41 -12.5,12.17 -20.72,14.1 -1.42,0.4 -3.53,0.91 -6.27,1.54 q -27.79,6.59 -27.79,14.53 c 0,4.16 7.28,7.92 21.72,11.34 4.36,1 7.77,1.74 10.24,2.38 8.89,2.13 15.48,5.12 19.65,9 a 18.86,18.86 0 0 1 6.44,14.61 c 0,8.27 -4.11,15.08 -12.2,20.27 -8.09,5.19 -18.86,7.85 -32.1,7.85 -12.65,0 -22.94,-2.16 -30.75,-6.34 -7.87,-4.34 -11.73,-9.75 -11.73,-16.42 a 17.34,17.34 0 0 1 5.22,-12.24 c 3.53,-3.75 6.85,-5.56 10,-5.56 a 2.85,2.85 0 0 1 2.12,1 2.23,2.23 0 0 1 1,1.76 c 0,0.68 -1.22,2.51 -3.64,5.45 -2.42,2.94 -3.62,5.85 -3.62,8.75 0,5.73 2.93,10.34 8.69,13.84 5.76,3.5 13.57,5.28 23.3,5.28 8.72,0 15.9,-1.76 21.67,-5.29 5.77,-3.53 8.53,-8 8.53,-13.35 q 0,-9.9 -25.8,-17.4 H 1133 c -1.52,-0.4 -3.79,-1.06 -7,-2 q -23.09,-6.32 -23.08,-17 c 0,-5.34 2.5,-9.91 7.46,-13.8 4.96,-3.89 12.16,-6.79 21.61,-8.7 -5.24,-2.2 -9.23,-5.36 -11.65,-9.5 -2.42,-4.14 -3.74,-9.4 -3.74,-15.9 0,-10.71 3.81,-20.29 11.54,-28.78 7.73,-8.49 16.41,-12.89 26.17,-12.89 a 19.72,19.72 0 0 1 7.14,1.38 36.14,36.14 0 0 1 7.87,4.41 z m -14.82,-0.7 q -8.07,0 -16.07,15.5 a 67.22,67.22 0 0 0 -8.13,31.94 c 0,3.92 0.85,6.91 2.45,9 a 8.25,8.25 0 0 0 6.82,3 11,11 0 0 0 5.06,-1.12 15,15 0 0 0 4.35,-3.55 c 4,-4.58 7.57,-11.08 10.58,-19.43 3.01,-8.35 4.63,-15.9 4.63,-22.22 0,-4.36 -0.81,-7.67 -2.45,-9.84 -1.64,-2.17 -4.05,-3.28 -7.24,-3.28 z"
       id="path126" />
    <path
       class="cls-7"
       d="m 1240.84,3199.52 -16.44,50.41 a 11.19,11.19 0 0 0 -0.83,3.13 15.68,15.68 0 0 0 -0.31,3.14 6.74,6.74 0 0 0 1.88,5.13 c 1.21,1.23 3,1.79 5.38,1.79 7.13,0 14.47,-5.09 22.16,-15.29 7.69,-10.2 14.22,-23.76 19.68,-40.73 l 9.46,-30.07 H 1296 l -21.64,70.84 c -0.64,2.09 -1.16,4 -1.49,5.57 a 24.58,24.58 0 0 0 -0.51,3.9 4.91,4.91 0 0 0 1.25,3.59 4,4 0 0 0 3.26,1.31 c 2.73,0 5.36,-1.49 8,-4.39 2.64,-2.9 5.17,-7.52 8,-13.82 h 4 c -2.38,8 -5.81,14.49 -10.22,19.33 -4.41,4.84 -8.93,7.27 -13.61,7.27 -4,0 -7,-1.09 -9,-3.26 -2,-2.17 -3,-5.47 -3,-9.86 a 49.32,49.32 0 0 1 1.67,-10.71 c 1.07,-4.65 3,-10.94 5.63,-18.92 l -0.74,-0.52 c -5,13.7 -11.16,24.39 -18.28,31.95 -7.12,7.56 -14.36,11.32 -22,11.32 a 17.87,17.87 0 0 1 -12.55,-4.48 c -3.26,-3 -4.79,-6.78 -4.79,-11.6 a 29.71,29.71 0 0 1 0.3,-3.81 19.67,19.67 0 0 1 1.11,-4.2 l 16.15,-50.19 c 0.91,-3 1.63,-5.29 2,-6.89 a 13,13 0 0 0 0.68,-3 5.4,5.4 0 0 0 -0.79,-3.1 2.67,2.67 0 0 0 -2.15,-1.2 c -2.07,0 -4.37,1.57 -6.89,4.65 a 60.32,60.32 0 0 0 -8,13.44 H 1208 c 3.19,-8.41 7.11,-14.87 11.76,-19.58 4.65,-4.71 9.21,-7.1 14,-7.1 a 9.77,9.77 0 0 1 7.49,3.07 10.56,10.56 0 0 1 3,7.74 32.81,32.81 0 0 1 -0.9,6.15 c -0.66,2.72 -1.46,5.68 -2.51,8.99 z"
       id="path128" />
    <path
       class="cls-7"
       d="m 1359.43,3173.55 a 24.16,24.16 0 0 1 14.14,4.34 c 4.08,2.82 6.22,6 6.22,9.46 a 5.39,5.39 0 0 1 -1.58,3.86 6,6 0 0 1 -4,1.5 c -2,0 -3.83,-2.33 -5.47,-7 -1.64,-4.67 -5,-6.93 -9.75,-6.93 a 13,13 0 0 0 -9.33,3.7 12.38,12.38 0 0 0 -3.76,9.18 q 0,5.82 9,23.37 c 6,11.62 9,20.88 9,27.69 a 26,26 0 0 1 -8.68,19.89 q -8.62,8 -21.64,8.05 c -6.48,0 -12,-1.67 -16.35,-4.92 -4.35,-3.25 -6.62,-7.11 -6.62,-11.56 a 9.38,9.38 0 0 1 1.77,-5.64 4.89,4.89 0 0 1 4.12,-2.28 5.46,5.46 0 0 1 4.41,1.93 8.06,8.06 0 0 1 1.62,5.31 15.76,15.76 0 0 1 -0.4,2.91 14.85,14.85 0 0 0 -0.28,2.22 6.13,6.13 0 0 0 3.18,5.32 c 2.12,1.32 5,2 8.81,2 a 16.9,16.9 0 0 0 12.33,-4.87 15.9,15.9 0 0 0 4.91,-11.89 c 0,-4.64 -2.84,-12.63 -8.51,-23.79 -5.67,-11.16 -8.52,-19.81 -8.52,-25.85 a 25.23,25.23 0 0 1 7.56,-18.24 c 5.15,-5.13 11.06,-7.76 17.82,-7.76 z"
       id="path130" />
    <path
       class="cls-7"
       d="m 1430.47,3143.49 h 14.91 L 1435,3176.8 h 16.28 v 4.69 h -17.42 l -20.41,66.16 a 31.48,31.48 0 0 0 -1.36,5.3 24.89,24.89 0 0 0 -0.51,4.39 5.19,5.19 0 0 0 1.18,3.59 4.16,4.16 0 0 0 3.34,1.31 c 2.46,0 5.41,-2 8.82,-6.12 3.41,-4.12 7.57,-10.55 12.37,-19.33 h 4.5 c -5.12,11.37 -10.26,19.87 -15.45,25.36 -5.19,5.49 -10.46,8.24 -16.13,8.24 a 10.91,10.91 0 0 1 -8.83,-4.24 c -2.34,-2.79 -3.41,-6.51 -3.41,-11.14 a 49.25,49.25 0 0 1 1.94,-11.23 l 0.24,-0.66 18.64,-61.63 h -15.25 l 1.34,-4.69 h 15.25 z"
       id="path132" />
    <path
       class="cls-7"
       d="m 1502.32,3206.45 -14.59,45.71 a 39.45,39.45 0 0 0 -1.12,4 16,16 0 0 0 -0.3,2.74 5,5 0 0 0 1.38,3.7 4.58,4.58 0 0 0 3.52,1.42 c 3.24,0 6.43,-1.68 9.52,-5.07 3.09,-3.39 6.48,-8.6 10,-15.81 h 5.19 c -4.92,10.21 -9.47,17.36 -13.76,21.4 a 20.17,20.17 0 0 1 -14.42,6.11 c -5,0 -8.74,-1.09 -11.19,-3.23 -2.45,-2.14 -3.78,-5.25 -3.78,-9.4 a 40.65,40.65 0 0 1 1.25,-8.43 121,121 0 0 1 3.49,-12.26 l 11.77,-35.82 c 1.32,-4 2.24,-7.36 2.89,-10 a 27.49,27.49 0 0 0 0.95,-6.23 4.8,4.8 0 0 0 -1,-3.11 3.84,3.84 0 0 0 -2.86,-1 c -2.87,0 -5.94,1.63 -9.25,4.79 a 58.63,58.63 0 0 0 -9.65,13.64 h -5.15 a 61.45,61.45 0 0 1 13.35,-18.87 c 5.09,-4.7 9.86,-7.1 14.32,-7.1 4.2,0 7.47,1.24 9.85,3.55 a 12.7,12.7 0 0 1 3.7,9.54 42,42 0 0 1 -1.11,8.7 85.13,85.13 0 0 1 -3,11.03 z m 3.53,-80.57 a 9.77,9.77 0 0 1 7.08,2.89 9.67,9.67 0 0 1 0,14 9.71,9.71 0 0 1 -7,2.88 9.89,9.89 0 0 1 0,-19.78 z"
       id="path134" />
    <path
       class="cls-7"
       d="m 1699.42,3114.16 -42.06,138 c -0.41,1.41 -0.74,2.56 -1,3.62 a 14.79,14.79 0 0 0 -0.37,2.66 7,7 0 0 0 0.92,3.8 3.34,3.34 0 0 0 2.86,1.34 q 3.9,0 7.91,-4.43 c 2.74,-3 5.21,-7.19 7.71,-12.61 h 4.61 c -2.63,7.47 -6.09,13.32 -10.25,17.53 -4.16,4.21 -8.63,6.32 -13.3,6.32 -4.31,0 -7.57,-1.06 -9.69,-3.29 -2.12,-2.23 -3.25,-5.52 -3.25,-10 a 27.31,27.31 0 0 1 0.49,-5 35.81,35.81 0 0 1 1.13,-5.19 c -5.65,8.12 -10.89,14.08 -15.86,17.87 -4.97,3.79 -10,5.55 -15.16,5.55 -6.38,0 -11.29,-2.11 -14.8,-6.39 -3.35,-4.27 -5,-10.37 -5,-18.43 a 64.81,64.81 0 0 1 5,-24.4 100,100 0 0 1 15,-24.39 80.43,80.43 0 0 1 18.79,-17 c 6.45,-4.11 12.35,-6.2 17.63,-6.2 a 11.82,11.82 0 0 1 7.78,2.74 18.79,18.79 0 0 1 5.27,8.07 l 15.82,-52 a 2.86,2.86 0 0 1 0.21,-0.81 15.88,15.88 0 0 0 1,-4.84 c 0,-1.45 -1,-2.52 -2.81,-3.2 -1.81,-0.68 -4.58,-1 -8.24,-1 l 1,-4.55 a 105.8,105.8 0 0 0 13.86,-1.11 c 4.82,-0.58 9.77,-1.51 14.8,-2.66 z m -48.11,65.24 c -4.24,0 -8.9,2.59 -13.91,7.7 -5.01,5.11 -10.15,12.5 -15.39,22.12 a 128,128 0 0 0 -9.51,22.34 c -2.28,7.35 -3.48,13.64 -3.48,18.71 0,4.14 0.91,7.36 2.55,9.73 a 8.34,8.34 0 0 0 7.14,3.58 c 4.45,0 9.29,-2.83 14.53,-8.32 5.24,-5.49 9.91,-13.17 14.24,-22.91 a 196.81,196.81 0 0 0 9.08,-25 c 2.27,-8.06 3.44,-14 3.44,-17.62 a 10.88,10.88 0 0 0 -2.41,-7.38 7.87,7.87 0 0 0 -6.28,-2.95 z"
       id="path136" />
    <path
       class="cls-7"
       d="m 1718.15,3174.67 v -4.2 a 44,44 0 0 0 23.78,-10.17 c 6.62,-5.78 9.84,-12 9.84,-18.43 0,-1.73 -0.39,-3 -1.49,-3.76 a 7.71,7.71 0 0 0 -4.66,-1.21 h -2.08 a 10.11,10.11 0 0 1 -7.42,-2.93 9.92,9.92 0 0 1 -2.94,-7.36 11.74,11.74 0 0 1 3,-8.51 10.19,10.19 0 0 1 7.9,-3.27 12.88,12.88 0 0 1 11,5.61 c 2.87,3.73 4.2,8.61 4.2,14.68 0,9.84 -3.92,18.61 -11.79,26.24 -7.87,7.63 -17.64,12.09 -29.34,13.31 z"
       id="path138" />
    <path
       class="cls-7"
       d="m 1789,3118 h 67.84 l -1.45,5.38 c -8.52,0.53 -15,2.1 -19.56,4.64 a 17.68,17.68 0 0 0 -9,11.42 L 1796.41,3246 c 0,0.23 -0.07,0.4 -0.07,0.54 a 18.61,18.61 0 0 0 -0.71,4.4 c 0,3.89 1.57,6.69 4.6,8.43 3.03,1.74 8.28,2.64 15.35,2.87 l -1.49,5.16 h -67.82 l 1.64,-5.16 c 8.13,-0.37 14.5,-1.83 19.16,-4.46 a 18.51,18.51 0 0 0 9.18,-11.55 l 30.52,-106.81 c 0.23,-0.79 0.36,-1.57 0.54,-2.31 0.18,-0.74 0.1,-1.41 0.1,-2.2 0,-3.86 -1.38,-6.64 -4.33,-8.37 -2.95,-1.73 -8.07,-2.73 -15.63,-3.18 z"
       id="path140" />
    <path
       class="cls-7"
       d="m 1884.11,3143.49 h 15 l -10.49,33.31 h 16.3 v 4.69 h -17.42 l -20.43,66.16 a 37.05,37.05 0 0 0 -1.34,5.3 26.07,26.07 0 0 0 -0.52,4.39 5.1,5.1 0 0 0 1.28,3.59 3.71,3.71 0 0 0 3.2,1.31 c 2.53,0 5.45,-2 8.88,-6.12 3.43,-4.12 7.56,-10.55 12.35,-19.33 h 4.5 c -5.14,11.37 -10.27,19.87 -15.43,25.36 -5.16,5.49 -10.5,8.24 -16.09,8.24 a 11.07,11.07 0 0 1 -8.92,-4.24 q -3.37,-4.18 -3.38,-11.14 a 48.43,48.43 0 0 1 2,-11.23 l 0.21,-0.66 18.62,-61.63 h -15.18 l 1.27,-4.69 h 15.24 z"
       id="path142" />
    <path
       class="cls-7"
       d="m 1988.56,3184.36 3.93,-10.81 h 13.17 l -24.06,78.61 a 37.43,37.43 0 0 0 -1,3.62 17.9,17.9 0 0 0 -0.29,2.66 6.18,6.18 0 0 0 1,3.78 3.62,3.62 0 0 0 3,1.36 q 3.83,0 7.89,-4.43 a 47.18,47.18 0 0 0 7.6,-12.61 h 4.76 c -2.75,7.47 -6.13,13.32 -10.28,17.53 -4.15,4.21 -8.6,6.32 -13.38,6.32 -4.32,0 -7.6,-1.08 -9.75,-3.35 -2.15,-2.27 -3.32,-5.51 -3.32,-9.93 a 25.46,25.46 0 0 1 0.41,-4.52 c 0.31,-1.61 0.79,-3.51 1.36,-5.62 -5,7.86 -10.22,13.71 -15.31,17.6 -5.09,3.89 -10.22,5.82 -15.47,5.82 -6.44,0 -11.36,-2.11 -14.75,-6.39 -3.39,-4.28 -5,-10.37 -5,-18.43 a 64,64 0 0 1 5.1,-24.4 94.73,94.73 0 0 1 14.9,-24.39 80.26,80.26 0 0 1 18.74,-17 c 6.44,-4.11 12.4,-6.2 17.73,-6.2 a 11.8,11.8 0 0 1 7.76,2.74 19.14,19.14 0 0 1 5.26,8.04 z m -12.57,-5 c -4.2,0 -8.81,2.59 -13.92,7.7 -5.11,5.11 -10.14,12.5 -15.35,22.12 a 127.66,127.66 0 0 0 -9.58,22.34 c -2.3,7.35 -3.44,13.64 -3.44,18.71 0,4.14 0.83,7.36 2.55,9.73 a 8.21,8.21 0 0 0 7.08,3.58 c 4.53,0 9.41,-2.83 14.68,-8.44 5.27,-5.61 10,-13.19 14.35,-22.79 a 198.81,198.81 0 0 0 9,-24.76 c 2.29,-8.1 3.36,-14 3.36,-17.85 a 10.66,10.66 0 0 0 -2.45,-7.38 7.92,7.92 0 0 0 -6.27,-2.92 z"
       id="path144" />
    <path
       class="cls-7"
       d="m 2084.82,3114.16 -40,130.3 a 66.21,66.21 0 0 0 -1.86,7.4 40.42,40.42 0 0 0 -0.68,6.14 6.87,6.87 0 0 0 1.29,4.41 4.17,4.17 0 0 0 3.49,1.59 c 3,0 6,-1.7 8.94,-5.12 2.94,-3.42 6.63,-9.53 10.88,-18 h 4.78 q -6.19,15.26 -12.92,22.49 c -4.51,4.87 -9.5,7.27 -15,7.27 -5,0 -8.76,-1.22 -11.36,-3.71 -2.6,-2.49 -3.77,-6 -3.77,-10.72 a 46.23,46.23 0 0 1 0.74,-7.49 53.92,53.92 0 0 1 2,-8.29 l 33,-107.59 a 1.92,1.92 0 0 0 0.28,-0.53 18.15,18.15 0 0 0 0.82,-4.85 3.49,3.49 0 0 0 -2.28,-3.16 15.42,15.42 0 0 0 -6.46,-1.16 c -0.28,0 -0.73,0.08 -1.43,0.13 -0.7,0.05 -1.3,0.1 -1.71,0.1 l 1.07,-5.38 a 124.9,124.9 0 0 0 14.23,-1 c 5.03,-0.66 10.37,-1.56 15.95,-2.83 z"
       id="path146" />
    <path
       class="cls-7"
       d="m 2130.11,3206.45 -14.65,45.71 a 27,27 0 0 0 -1.06,4 17.09,17.09 0 0 0 -0.35,2.74 5.22,5.22 0 0 0 1.38,3.7 4.74,4.74 0 0 0 3.57,1.4 c 3.25,0 6.38,-1.68 9.54,-5.07 3.16,-3.39 6.36,-8.6 9.89,-15.81 h 5.21 c -4.93,10.21 -9.48,17.36 -13.74,21.4 a 20,20 0 0 1 -14.45,6.11 c -5,0 -8.66,-1.09 -11.17,-3.23 -2.51,-2.14 -3.71,-5.25 -3.71,-9.4 a 36.08,36.08 0 0 1 1.22,-8.43 112.71,112.71 0 0 1 3.46,-12.26 l 11.76,-35.82 a 92.69,92.69 0 0 0 2.89,-10 26.61,26.61 0 0 0 1,-6.23 4.35,4.35 0 0 0 -1,-3.11 3.7,3.7 0 0 0 -2.85,-1 c -2.83,0 -5.94,1.63 -9.26,4.79 a 60.15,60.15 0 0 0 -9.64,13.64 H 2093 a 60.59,60.59 0 0 1 13.33,-18.87 c 5,-4.7 9.86,-7.1 14.29,-7.1 4.18,0 7.55,1.24 9.93,3.55 a 12.79,12.79 0 0 1 3.66,9.54 45,45 0 0 1 -1.12,8.7 99.84,99.84 0 0 1 -2.98,11.05 z m 3.55,-80.57 a 9.92,9.92 0 0 1 7.06,2.89 9.36,9.36 0 0 1 2.93,7 9.23,9.23 0 0 1 -3,7 9.8994949,9.8994949 0 0 1 -14,-14 9.67,9.67 0 0 1 7.01,-2.89 z"
       id="path148" />
    <path
       class="cls-7"
       d="m 2234.94,3184.36 3.82,-10.81 H 2252 l -24.06,78.61 a 28,28 0 0 0 -1,3.62 12.3,12.3 0 0 0 -0.35,2.66 6.06,6.06 0 0 0 1.1,3.78 3.45,3.45 0 0 0 3,1.36 q 3.84,0 7.92,-4.43 a 46.42,46.42 0 0 0 7.61,-12.61 h 4.67 c -2.69,7.47 -6.17,13.32 -10.2,17.53 -4.24,4.21 -8.62,6.32 -13.42,6.32 -4.32,0 -7.57,-1.08 -9.77,-3.35 -2.2,-2.27 -3.26,-5.51 -3.26,-9.93 a 25.34,25.34 0 0 1 0.39,-4.52 c 0.28,-1.61 0.74,-3.51 1.32,-5.62 q -7.57,11.79 -15.28,17.6 -7.71,5.81 -15.45,5.82 c -6.45,0 -11.37,-2.11 -14.75,-6.39 -3.38,-4.28 -5,-10.37 -5,-18.43 a 64.53,64.53 0 0 1 5.1,-24.4 97.1,97.1 0 0 1 14.86,-24.39 84.26,84.26 0 0 1 18.69,-17 c 6.54,-4.11 12.46,-6.2 17.8,-6.2 a 11.82,11.82 0 0 1 7.79,2.74 19.4,19.4 0 0 1 5.23,8.04 z m -12.6,-5 c -4.29,0 -8.81,2.59 -13.85,7.7 -5.04,5.11 -10.2,12.5 -15.4,22.12 a 120.83,120.83 0 0 0 -9.63,22.34 c -2.34,7.35 -3.45,13.64 -3.45,18.71 0,4.14 0.83,7.36 2.57,9.73 a 8.15,8.15 0 0 0 7.06,3.58 c 4.54,0 9.44,-2.83 14.65,-8.44 5.21,-5.61 10.05,-13.19 14.41,-22.79 a 192.2,192.2 0 0 0 9,-24.76 c 2.23,-8.1 3.46,-14 3.46,-17.85 a 10.89,10.89 0 0 0 -2.52,-7.38 7.9,7.9 0 0 0 -6.3,-2.92 z"
       id="path150" />
  </g>
  <metadata
     id="metadata237">
    <rdf:RDF>
      <cc:Work
         rdf:about="">
        <dc:title>Tavola disegno 1 copia 8</dc:title>
      </cc:Work>
    </rdf:RDF>
  </metadata>
</svg>
